<svg viewBox="0 0 661.42 202.13" xmlns="http://www.w3.org/2000/svg" xmlns:xlink="http://www.w3.org/1999/xlink" id="Layer_2" overflow="hidden">
<defs></defs><g id="Layer_1-2"><g><path d="M140.12 173.27C137.86 167.95 136.1 163.9 132.76 159.12 131.05 156.67 129.32 154.23 127.58 151.8 123.63 146.28 119.6 141.04 115.16 135.92 108.57 128.32 101.98 120.73 95.38 113.14 82.45 98.27 69.75 83.14 56.38 68.66 51.94 63.84 47.63 59.06 42.42 55.02 32.24 47.13 16.02 44.85 6.27 54.71 1.39 59.62-0.56 66.06 0.14 72.89L1.67 78.27C1.41 78.64 1.16 79.02 0.9 79.39 1.99 84.5 3.76 87.56 6.51 91.68 9.5 96.15 13.08 100.05 16.64 104.06 29.25 118.28 42.52 131.94 55.56 145.77 72.86 164.13 89.53 184.87 111.54 197.69 118.53 201.76 128.03 199.99 133.91 194.99 139.68 190.08 143.29 180.7 140.13 173.27Z" class="MsftOfcThm_Accent4_Fill_v2 MsftOfcThm_Accent4_Stroke_v2" stroke="#D2EB00" stroke-width="0.999514" stroke-linecap="butt" stroke-linejoin="miter" stroke-miterlimit="4" stroke-opacity="1" fill="currentColor" fill-opacity="1"></path><path d="M224.07 25.29C223.2 12.57 211.27 1.11 198.15 2.57 191.88 3.27 185.49 5.76 181.42 10.82 177.11 16.19 175.8 21.66 175.43 28.49 174.24 50.55 175.5 72.95 175.7 95.03 175.79 104.77 176.14 114.43 176.74 124.15 177.58 137.73 177.94 151.85 182.97 164.61 185.72 171.58 195.07 175.09 201.81 174.35 209.41 173.51 215.67 168.32 218.03 161 222.08 148.46 222.29 134.51 222.96 121.4 223.53 110.34 223.74 99.31 223.84 88.24 223.93 77.81 224.02 67.37 224.11 56.94 224.2 46.43 224.79 35.78 224.07 25.3Z" class="MsftOfcThm_Accent4_Fill_v2 MsftOfcThm_Accent4_Stroke_v2" stroke="#D2EB00" stroke-width="0.999514" stroke-linecap="butt" stroke-linejoin="miter" stroke-miterlimit="4" stroke-opacity="1" fill="currentColor" fill-opacity="1"></path><path d="M486.29 0.16C473.86-1.2 464.67 6.5 460.65 17.81 458.63 23.48 458.22 29.92 457.24 35.86 456.23 42 455.22 48.14 454.21 54.28 452.24 66.28 450.27 78.27 448.31 90.27 443.87 117.4 439.78 144.35 438.85 171.86 438.54 180.89 443.75 188.82 452.76 190.92 461.1 192.86 470.8 188.45 473.62 179.9 482.59 152.73 488.59 124.95 494.05 96.9 496.29 85.4 498.53 73.91 500.76 62.41 501.88 56.66 502.99 50.91 504.11 45.15 505.52 37.9 507.58 30.38 507.46 22.97 507.26 11.12 497.82 1.41 486.29 0.15Z" class="MsftOfcThm_Accent4_Fill_v2 MsftOfcThm_Accent4_Stroke_v2" stroke="#D2EB00" stroke-width="0.999514" stroke-linecap="butt" stroke-linejoin="miter" stroke-miterlimit="4" stroke-opacity="1" fill="currentColor" fill-opacity="1"></path><path d="M652.44 31.75C641.61 23.61 626.35 24.52 617.46 35.2 599.76 56.45 582.07 77.7 564.39 98.96 553.27 112.32 542.27 125.64 531.74 139.48 528.08 144.29 524.43 149.09 520.81 153.92 515.11 161.53 510.62 169.18 506.63 177.81 503.34 184.94 507.98 195.57 514.45 199.33 522.14 203.79 530.5 202.74 537.41 197.39 542.17 193.7 546.5 190.48 550.69 186.05 554.18 182.36 557.74 178.75 561.27 175.1 566.33 169.86 571.56 164.72 576.41 159.29 585.43 149.19 594.08 138.73 602.9 128.45 620.57 107.88 638.23 87.31 655.89 66.73 664.37 56.84 663.02 39.69 652.44 31.75Z" class="MsftOfcThm_Accent4_Fill_v2 MsftOfcThm_Accent4_Stroke_v2" stroke="#D2EB00" stroke-width="0.999514" stroke-linecap="butt" stroke-linejoin="miter" stroke-miterlimit="4" stroke-opacity="1" fill="currentColor" fill-opacity="1"></path></g></g></svg>
