<svg viewBox="0 0 459.06 505.3" xmlns="http://www.w3.org/2000/svg" xmlns:xlink="http://www.w3.org/1999/xlink" id="Layer_2" overflow="hidden"><defs></defs><g id="Layer_1-2"><g><path d="M206.02 95.12C207.74 107 208.86 118.96 209.27 130.96 209.76 145.25 208.79 159.47 209.38 173.75 209.29 171.43 209.19 169.11 209.1 166.78 209.12 167.36 209.13 167.94 209.15 168.52 209.12 173.37 209.09 178.23 209.06 183.08 208.86 188.71 213.45 196.51 217.77 199.84 222.16 203.22 226.93 205.12 232.48 205.38 243.38 205.89 252.44 199.56 256.47 189.93 257.07 188.49 257.56 186.99 257.93 185.42 258.08 184.77 258.23 184.13 258.38 183.48 258.83 181.53 259.26 179.58 259.67 177.62 260.5 173.67 261.29 169.71 261.92 165.73 263.01 158.89 263.12 151.77 263.35 144.85 263.8 131.34 263.47 117.8 262.36 104.32 259.98 75.51 254.5 46.76 244.88 19.47 239.99 5.59 223.74-3.92 209.32 1.57 195.09 6.99 186.43 22.16 191.42 37.13 197.54 55.47 202.45 74.29 205.72 93.35 205.81 93.94 205.91 94.53 206 95.11Z" fill="currentColor"></path><path d="M141.42 263.49C128.29 258.73 114.5 256.05 100.49 255.87 92.79 255.77 85.09 255.77 77.39 255.72 69.69 255.67 61.99 255.62 54.29 255.57 50.59 255.55 46.9 255.52 43.2 255.5 41.35 255.49 39.5 255.48 37.65 255.47 31.35 255.43 28.13 256.76 20.81 258.44 9.82 260.96 0.04 271.52 0 283.19-0.03 294.51 6.85 307 18.57 309.91 22 310.76 25.27 311.89 28.77 312.58 33.53 313.51 38.08 313.51 42.96 313.49 47.13 313.47 51.3 313.44 55.47 313.41 64.7 313.35 73.94 313.29 83.18 313.23 91.72 313.17 100.84 314 109.3 312.74 114.53 311.96 120.35 311.54 125.26 310.52 132.6 308.99 142.55 306.6 148.45 301.36 160.97 290.24 157.36 269.26 141.43 263.49Z" fill="currentColor"></path><path d="M458.89 268.15C457.46 255.9 446.19 243.05 432.72 244.12 410.57 245.88 388.62 250.5 366.73 254.37 358.31 255.85 349.89 257.35 341.47 258.84 337.46 259.55 333.44 260.2 329.47 261.08 325.1 262.05 317.5 264.35 312.15 266.16 303.69 269.02 298.34 275.19 291.94 280.92 287.23 285.14 285.35 292.94 288.53 298.64 289.81 300.94 291.55 302.88 293.69 304.41 295.36 305.59 297.18 306.27 299.17 306.45 299.9 306.65 300.64 306.75 301.38 306.79 298.8 307.22 299.06 308.02 302.15 309.18 304.59 310.81 307.3 311.74 310.3 311.94 313.89 312.68 317.55 313.24 321.22 313.29 326.04 313.36 330.95 312.99 335.76 312.73 343.31 312.32 350.79 311 358.27 309.94 370.96 308.13 383.66 306.31 396.35 304.49 410.62 302.58 424.83 300.67 438.9 297.51 452.07 294.55 460.4 281.07 458.89 268.15Z" fill="currentColor"></path><path d="M203.14 428.92C203.14 428.92 203.14 428.89 203.14 428.87 202.89 426.24 202.63 423.61 202.38 420.98 202.64 423.63 202.89 426.27 203.15 428.92Z" fill="currentColor"></path><path d="M268.53 458.02C266.14 439.21 264.44 420.12 260.9 401.49 259.38 393.47 257.86 385.43 255.88 377.5 255.27 375.04 254.56 372.59 253.82 370.17 252.38 365.46 251.15 361.01 248.74 356.71 247.23 353.69 245.4 350.87 243.24 348.27 240.18 345.29 236.68 342.94 232.76 341.21 228.07 338.59 219.98 339.17 215.89 342.78 197.01 359.44 200.44 386.41 201.68 408.54 201.61 405.97 201.54 403.4 201.47 400.83 201.72 410.27 202.17 419.47 203.14 428.86 204.06 438.36 204.97 447.87 205.89 457.37 206.22 460.79 206.55 464.22 206.89 467.64 207.53 474.27 208.32 479.32 211.55 485.32 214.76 491.28 218.26 496.23 224.19 499.81 229.89 503.25 235.74 506.18 242.72 505.03 249.62 503.89 254.74 500.72 259.51 495.61 261.98 491.15 264.45 486.68 266.92 482.22 266.13 484.49 265.33 486.76 264.54 489.03 267.59 480.66 270.64 474.11 269.48 465.3 269.16 462.87 268.84 460.44 268.52 458.01Z" fill="currentColor"></path></g></g></svg>
