<svg viewBox="0 0 512.43 338.87" xmlns="http://www.w3.org/2000/svg" xmlns:xlink="http://www.w3.org/1999/xlink" id="Layer_2" overflow="hidden"><defs></defs><g id="Layer_1-2"><g><path d="M51.67 240.64C51.39 240.94 51.17 241.18 51.05 241.3 50.68 241.67 50.33 242.07 49.98 242.47 49.92 242.56 49.86 242.66 49.79 242.76 51.95 240.68 52.13 240.28 51.66 240.64Z" fill="currentColor"></path><path d="M46.73 249.55C46.72 249.74 46.71 249.94 46.7 250.13 46.97 249.06 47.13 248.29 47.2 247.79 47.03 248.37 46.87 248.96 46.73 249.55Z" fill="currentColor"></path><path d="M186 296.59C187.07 293.17 187.05 289.39 186.02 285.54 184.9 281.35 184.36 277.04 182.78 272.96 181.3 269.14 179.48 265.4 177.75 261.69 174.07 253.82 169.65 246.36 164.8 239.15 156.26 226.46 146.02 214.79 133.99 205.28 111.4 187.42 81.66 180.2 53.76 188.73 25.41 197.4 2.16 218.81 0.12 249.69-1.04 267.2 6.53 283.68 17.73 296.66 28.48 309.13 43.14 317.04 58.28 322.82 75.92 329.55 94.96 330.5 113.65 331.3 118.44 331.51 123.24 331.68 128.03 331.92 128.87 331.96 129.72 332.01 130.56 332.05 130.75 332.06 132.18 332.16 133.1 332.22 133.17 332.22 133.24 332.23 133.29 332.24 134.68 332.37 136.07 332.5 137.46 332.66 146.52 333.67 155.5 335.51 164.31 337.88 175.85 340.99 187.95 333.73 192.03 322.99 195.3 314.37 193.16 302.93 186.02 296.6ZM86.97 230.36C87.7 230.11 89.13 230.52 90.55 231.07 89.76 230.94 86.65 230.47 86.97 230.36ZM56.36 236.67C56.56 236.71 54.54 238.02 53.66 238.58 54.75 237.51 55.87 236.57 56.36 236.67ZM122.79 283.42C115.35 283.16 107.91 283.04 100.47 282.64 98.55 282.54 96.63 282.41 94.7 282.27 94.62 282.27 94.21 282.23 93.82 282.19 93.42 282.15 92.99 282.1 92.91 282.09 89.77 281.69 86.66 281.26 83.56 280.62 80.69 280.02 77.85 279.29 75.05 278.43 73.94 278.09 72.84 277.71 71.73 277.34 71.1 277.08 70.25 276.73 70.13 276.68 67.64 275.57 65.2 274.34 62.84 272.99 61.76 272.37 60.69 271.73 59.64 271.06 59.28 270.83 58.31 270.15 57.5 269.59 57.13 269.3 56.79 269.02 56.61 268.87 55.55 267.96 54.51 267.02 53.51 266.03 52.67 265.2 51.85 264.34 51.06 263.45 51.06 263.45 51.05 263.44 51.04 263.43 49.93 261.64 48.96 259.66 47.83 257.88 47.47 256.59 47.11 255.3 46.75 254.01 46.69 253.2 46.62 252.39 46.63 251.58 46.63 251.1 46.66 250.62 46.68 250.13 46.56 250.59 46.43 251.09 46.27 251.67 46.45 251.04 46.52 250.36 46.66 249.72 46.67 249.66 46.69 249.6 46.7 249.54 46.72 249.19 46.74 248.84 46.76 248.49 46.76 248.28 46.79 248.08 46.82 247.89 46.85 247.84 47.02 247.49 47.23 247.08 47.23 247.22 47.22 247.45 47.17 247.78 47.26 247.48 47.34 247.18 47.44 246.88 47.5 246.7 47.61 246.4 47.74 246.07 47.81 245.93 47.88 245.79 47.94 245.7 48.5 244.69 49.12 243.71 49.77 242.76 49.54 242.98 49.29 243.22 49 243.49 49.33 243.17 49.65 242.83 49.95 242.48 49.97 242.46 49.98 242.43 50 242.41 50.53 241.65 51.28 240.92 51.64 240.65 52.14 240.11 52.84 239.36 53.56 238.65 53.59 238.63 53.61 238.62 53.64 238.6 54.23 238.24 54.78 237.83 55.36 237.46 56.24 236.9 57.13 236.37 58.04 235.86 60.09 234.71 62.21 233.73 64.36 232.79 65.15 232.54 65.94 232.29 66.74 232.07 69.17 231.39 71.64 230.85 74.13 230.45 75.19 230.28 76.3 230.22 77.37 230.04 79.87 230.04 82.36 230.06 84.85 230.3 86.1 230.42 87.34 230.58 88.58 230.77 89.11 230.85 89.63 230.98 90.16 231.05 90.36 231.08 90.48 231.09 90.57 231.1 91.97 231.64 93.36 232.3 94.06 232.57 95.35 233.07 96.62 233.64 97.88 234.23 98.26 234.41 98.65 234.6 99.03 234.78 99.13 234.84 99.24 234.91 99.37 234.98 102.04 236.6 104.66 238.25 107.17 240.1 109.86 242.08 112.32 244.3 114.88 246.43 114.89 246.44 114.9 246.45 114.91 246.46 115.32 246.87 115.73 247.28 116.13 247.69 117.38 248.98 118.6 250.3 119.8 251.64 124.34 256.74 128.47 262.19 132.31 267.83 136.09 273.38 139.77 279.02 143.46 284.64 136.63 284.01 129.73 283.69 122.75 283.45Z" fill="currentColor"></path><path d="M278.18 52.4C277.71 52.18 277.23 51.97 276.75 51.78 276.7 51.78 276.64 51.78 276.59 51.77 277.04 51.99 277.64 52.25 278.41 52.56 278.33 52.51 278.26 52.45 278.18 52.4Z" fill="currentColor"></path><path d="M346.96 109.83C346.63 90.94 344.61 72.09 338.33 54.17 332.42 37.32 322.09 19.6 306.7 9.76 288.99-1.57 265.73-3.9 247.25 7.39 211.14 29.47 208.23 75.98 208.81 113.97 209.17 138.02 210.66 162.05 213.26 185.96 216.6 216.71 218.41 251 237.99 276.53 241.61 281.25 248.86 282.97 254.7 282.17 255.16 282.82 255.67 283.45 256.23 284.05 257.57 285.48 258.92 286.91 260.26 288.35 263.18 290.75 266.51 292.27 270.24 292.89 273.98 293.49 277.61 293.12 281.15 291.78 292.26 278.41 294.02 287.6 298.58 280.57 299.14 279.71 299.69 278.85 300.24 277.98 301.47 276.03 302.67 274.07 303.85 272.09 307.18 266.5 310.44 260.85 313.49 255.1 317.93 246.74 321.92 238.15 325.45 229.37 333.03 210.54 338.68 190.74 342.38 170.79 346.12 150.66 347.33 130.27 346.97 109.81ZM296.74 123.23C296.4 132.71 295.56 142.18 294.23 151.58 292.94 160.73 291.18 169.81 288.98 178.78 288.43 181.02 287.81 183.25 287.24 185.49 289.11 178.15 287.4 184.75 286.86 186.55 285.37 191.46 283.75 196.33 281.98 201.15 279.07 209.12 275.76 216.95 272.11 224.62 271.88 222.46 271.6 220.3 271.3 218.18 270.37 211.67 269.52 205.16 268.74 198.63 266.3 175.29 264.76 151.87 264.28 128.4 264.05 116.97 264.16 105.55 264.3 94.13 264.38 87.07 264.43 80.11 265.22 73.12 265.86 69.58 266.63 66.07 267.73 62.62 268.28 60.88 268.9 59.17 269.59 57.49 269.62 57.42 269.65 57.34 269.69 57.25 269.76 57.12 269.82 57.01 269.86 56.94 270.56 55.76 271.37 54.66 272.17 53.55 272.18 53.54 272.19 53.52 272.21 53.51 272.54 53.2 272.89 52.92 273.24 52.63 273.78 52.38 274.32 52.13 274.86 51.87 275.19 51.81 275.51 51.77 275.84 51.72 276.09 51.74 276.33 51.76 276.58 51.78 276.49 51.74 276.4 51.69 276.32 51.65 276.33 51.65 276.35 51.65 276.36 51.65 276.49 51.7 276.62 51.75 276.74 51.8 276.87 51.81 277 51.82 277.13 51.83 277.21 51.83 277.28 51.84 277.35 51.85 277.62 52.04 277.9 52.23 278.17 52.42 278.62 52.63 279.08 52.83 279.54 53.01 279.54 53.01 279.53 53 279.52 52.99 279.52 52.99 279.53 53 279.54 53.01 279.65 53.05 279.75 53.1 279.86 53.14 279.75 53.1 279.66 53.06 279.55 53.02 280.48 54.15 281.56 55.16 282.5 56.28 283.59 57.6 284.62 58.97 285.59 60.38 285.88 60.81 286.17 61.24 286.45 61.67 287.81 64.42 289.25 67.1 290.38 69.96 291.14 71.89 291.83 73.84 292.47 75.82 292.65 76.37 292.81 76.93 292.98 77.48 294.62 85.18 295.53 92.95 296.12 100.8 296.46 105.4 296.68 110.02 296.78 114.63 296.82 116.68 296.78 118.73 296.84 120.78 296.62 112.54 296.8 121.08 296.72 123.23Z" fill="currentColor"></path><path d="M279.82 53.58C280.07 53.77 280.32 54 280.58 54.24 280.28 53.88 279.95 53.48 279.56 53.02 279.14 52.86 278.75 52.71 278.4 52.57 278.88 52.9 279.36 53.23 279.82 53.59Z" fill="currentColor"></path><path d="M280.58 54.23C283.8 58.07 282.27 55.84 280.58 54.23L280.58 54.23Z" fill="currentColor"></path><path d="M279.56 53.01C279.56 53.01 279.56 53.01 279.55 53 279.55 53 279.55 53 279.55 53 279.55 53 279.55 53 279.56 53.01 279.56 53.01 279.56 53.01 279.56 53.01Z" fill="currentColor"></path><path d="M438.11 270.73C438.81 270.3 439.51 269.88 440.23 269.51 440.28 269.48 440.33 269.44 440.38 269.4 436.42 271.18 436.85 271.28 438.12 270.72Z" fill="currentColor"></path><path d="M437.09 214.26C437.09 214.26 437.09 214.26 437.08 214.26 437.03 214.28 436.98 214.3 436.93 214.32 436.35 214.67 435.73 215 435.1 215.31 434.5 215.78 434.87 215.85 437.1 214.26Z" fill="currentColor"></path><path d="M512.07 230.34C510.61 215.37 504.53 199.84 494.58 188.49 481.84 173.95 466.02 165.86 446.61 164.86 413.13 163.13 384.59 191.22 370.26 218.84 362.49 233.82 356.32 250.09 350.9 266.07 349.85 269.17 348.74 272.26 347.51 275.3 344.43 282.96 341.86 290.99 337.48 298.03 335.79 300.74 334.96 303.76 333.75 306.71 333.02 308.49 331.9 310.32 331.35 312.15 329.08 319.68 336.13 327.68 343.53 326.58 346.78 331.61 351.75 335.4 357.68 337.32 359.4 337.87 361.2 338.28 363.06 338.5 364.13 338.66 365.23 338.79 366.32 338.85 368.33 338.97 370.35 338.76 372.36 338.62 379.16 338.16 385.97 337.64 392.76 336.99 401.02 336.21 409.25 335.11 417.37 333.4 434.54 329.78 451.02 323.77 465.8 314.31 494.28 296.08 515.49 265.4 512.07 230.34ZM453.89 216.14C453.89 216.14 452.89 215.4 451.99 214.74 452.79 215.11 453.48 215.56 453.89 216.14ZM461.67 242C461.45 243.19 461.07 244.38 460.89 245.57 461.01 244.79 461.11 244.15 461.19 243.63 461.07 244.16 460.92 244.71 460.75 245.16 460.14 246.78 459.37 248.32 458.61 249.86 458.45 250.33 458.05 251.28 457.58 252.05 457.4 252.45 457.21 252.85 457.05 253.25 457.2 252.88 457.33 252.55 457.45 252.24 456.72 253.37 455.95 254.48 455.15 255.57 454.35 256.67 453.51 257.74 452.65 258.79 452.42 259.07 452.19 259.33 451.96 259.61 450.08 261.17 448.41 263.12 446.53 264.69 444.55 266.35 442.49 267.92 440.37 269.41 440.55 269.33 440.73 269.25 440.92 269.16 440.68 269.26 440.45 269.39 440.22 269.51 440.12 269.58 440.02 269.66 439.91 269.73 439.34 270.13 438.64 270.49 438.1 270.72 437.43 271.14 436.76 271.55 436.09 271.91 431.54 274.35 426.82 276.39 421.99 278.16 411.64 281.19 401.04 283.03 390.34 284.24 393.59 278.01 396.5 271.61 399.22 265.07 401.24 260.21 403.26 255.35 405.39 250.53 405.84 249.52 406.57 248.34 406.96 247.24 408.35 244.62 409.74 242.01 411.29 239.48 412.55 237.42 413.86 235.39 415.24 233.41 416.02 232.29 416.83 231.2 417.63 230.1 417.66 230.06 417.69 230.03 417.73 229.99 421.19 226.18 424.69 222.59 428.53 219.2 429.66 218.47 430.75 217.67 431.9 216.96 432.89 216.35 434 215.84 435.08 215.3 435.43 215.03 436.09 214.62 436.91 214.31 437.21 214.13 437.51 213.93 437.79 213.73 437.53 213.92 437.3 214.09 437.08 214.25 438.23 213.85 439.39 213.49 440.56 213.18 441.55 213.11 442.6 212.87 443.52 212.83 444.34 212.8 445.26 212.9 446.14 212.92 446.24 212.94 446.33 212.95 446.43 212.97 447.09 213.1 447.75 213.25 448.41 213.41 448.16 213.26 447.88 213.09 447.59 212.91 447.94 213.13 448.36 213.32 448.83 213.5 448.87 213.51 448.92 213.52 448.96 213.53 449.62 213.7 450.17 213.93 450.54 214.14 450.81 214.24 451.07 214.34 451.33 214.44 451.41 214.51 451.48 214.57 451.58 214.65 452.65 215.57 453.76 216.43 454.8 217.37 454.62 217.1 454.43 216.8 454.22 216.47 454.54 216.97 455 217.46 455.41 217.94 456.05 218.6 456.49 219.28 456.61 219.58 456.88 219.99 457.15 220.41 457.41 220.83 457.54 220.8 458.35 221.78 458.89 222.96 458.96 223.12 459.02 223.28 459.09 223.43 459.29 223.72 459.48 224.02 459.7 224.3 459.5 224.04 459.32 223.8 459.15 223.57 459.39 224.11 459.62 224.65 459.84 225.19 460.3 226.32 460.72 227.47 461.1 228.63 461.17 228.83 461.22 229.04 461.29 229.24 461.53 230.86 461.91 232.47 462.07 234.09 462.17 235.04 462.21 235.99 462.27 236.94 462.11 238.62 461.95 240.29 461.64 241.96Z" fill="currentColor"></path><path d="M457.45 252.24C457.45 252.24 457.45 252.23 457.46 252.22 457.5 252.16 457.53 252.1 457.57 252.04 457.9 251.3 458.24 250.57 458.6 249.85 458.81 249.21 458.58 249.46 457.45 252.24Z" fill="currentColor"></path><path d="M450.57 214.16C449.98 213.94 449.39 213.74 448.85 213.53 448.71 213.49 448.57 213.47 448.43 213.44 451.35 215.16 451.66 214.76 450.56 214.17Z" fill="currentColor"></path><path d="M461.18 243.63C461.59 241.86 461.71 240.33 461.18 243.63L461.18 243.63Z" fill="currentColor"></path><path d="M357.3 337.23C357.08 337.18 356.89 337.14 356.74 337.11 356.89 337.14 357.07 337.18 357.3 337.23Z" fill="currentColor"></path><path d="M356.74 337.1C356.57 337.06 356.47 337.04 356.4 337.02 356.47 337.04 356.58 337.06 356.74 337.1Z" fill="currentColor"></path><path d="M459.17 223.6C459.17 223.6 459.13 223.51 459.11 223.46 458.53 222.61 457.98 221.73 457.43 220.85 457.32 220.87 457.71 221.63 459.17 223.6Z" fill="currentColor"></path><path d="M456.63 219.61C456.34 219.18 456.05 218.75 455.73 218.34 455.63 218.22 455.53 218.09 455.42 217.97 455.34 217.89 455.26 217.8 455.17 217.72 455.05 217.61 454.93 217.5 454.81 217.39 456.32 219.67 456.79 220.02 456.62 219.6Z" fill="currentColor"></path></g></g></svg>
