<svg viewBox="0 0 608.12 315.51" xmlns="http://www.w3.org/2000/svg" xmlns:xlink="http://www.w3.org/1999/xlink" id="Layer_2" overflow="hidden"><defs></defs><g id="Layer_1-2"><g><path d="M233.02 265.65C231.59 263.83 230.64 261.79 229.03 260.01 226.33 257.04 223.6 254.08 220.86 251.15 217.79 247.87 214.75 244.6 211.42 241.58 205.37 236.09 199.31 230.6 193.25 225.12 180.55 213.64 167.75 202.27 155.12 190.71 131.16 168.76 106.37 147.66 81.96 126.21 75.26 120.32 68.56 114.44 61.86 108.55 58.7 105.77 55.53 102.99 52.37 100.21 47.71 96.12 42.96 91.19 37.39 88.42 31.78 85.62 25.55 83.54 19.16 85.22 13.72 86.65 9.17 89.36 5.57 93.72-2.51 103.51-1.42 116.32 6.39 125.97 12.12 133.04 19.86 138.58 26.77 144.47 33.57 150.27 40.36 156.07 47.16 161.86 60.39 173.14 73.62 184.43 86.86 195.71 114.15 218.97 141.62 242.01 169.28 264.82 177.59 271.68 185.9 278.38 194.7 284.61 200.11 288.44 205.55 291.98 211.6 294.72 219.42 298.26 228.16 296.65 233.73 289.88 239.88 282.4 238.79 273.03 233.02 265.66Z" fill="currentColor"></path><path d="M312.98 200.57C312.67 184.67 311.61 168.9 310.51 153.03 308.58 125.04 306.63 97.05 304.66 69.07 303.54 53.17 302.35 37.29 300.96 21.41 299.93 9.57 289.25-1.22 276.83 0.12 264.67 1.43 254.62 11.55 255.54 24.25 257.68 53.67 260.45 83.03 263.1 112.4 265.8 142.34 267.76 172.49 271.8 202.28 273.12 212.02 274.68 221.64 276.48 231.3 278.09 239.94 280.81 248.26 282.95 256.77 284.66 263.59 289.18 268.83 296.7 268.87 303.26 268.91 310.07 263.9 310.6 256.93 311.44 245.96 312.89 235.21 313.23 224.19 313.48 216.3 313.13 208.46 312.97 200.57Z" fill="currentColor"></path><path d="M479.22 33.4C476.26 29.98 472.74 27.65 468.34 26.49 457.99 23.76 448.9 29.18 444.21 38.39 441.01 44.67 439.11 51.9 436.72 58.53 434.34 65.16 431.95 71.78 429.57 78.41 424.72 91.89 419.87 105.37 415.02 118.85 404.33 148.56 394.32 178.52 383.86 208.31 381.43 215.24 379.08 222.14 377.08 229.22 373.88 240.55 370.73 251.92 373.23 263.73 374.12 267.96 377.64 271.44 381.73 272.61 386.15 273.88 389.97 272.44 393.47 269.78 398.7 265.79 402.45 259.86 405.65 254.21 406.73 252.3 407.71 250.41 408.59 248.4 410.22 244.67 411.82 240.92 413.51 237.22 417.56 228.36 420.69 218.97 424.16 209.87 429.05 197.06 433.93 184.25 438.81 171.44 448.48 146.05 457.88 120.56 467.25 95.06 469.79 88.15 472.33 81.24 474.86 74.33 477.97 65.87 481.41 57.51 483.49 48.73 484.59 44.07 482.28 36.93 479.22 33.4Z" fill="currentColor"></path><path d="M588.11 100.56C582.96 103.2 577.16 105.78 573.44 110.36 572 112.14 570.62 113.95 569.25 115.78 566.85 118.97 564.44 122.15 562.04 125.34 557.62 131.2 553.3 137.12 548.97 143.04 540.41 154.77 531.85 166.5 523.29 178.22 506.17 201.69 489.05 225.16 471.93 248.63 467.08 255.28 462.19 261.91 457.38 268.59 455.27 271.52 453.38 274.62 451.45 277.67 449.9 280.11 447.96 282.66 446.78 285.24 445.17 288.78 443.73 292.4 442.15 295.95 436.43 308.76 453.39 321.46 464.11 312.47 468.76 308.58 473.52 304.73 477.41 300.07 480.13 296.81 482.95 293.6 485.55 290.24 489.91 284.58 494.11 278.78 498.38 273.05 507.08 261.39 515.79 249.73 524.49 238.07 542.05 214.54 559.6 191.01 577.14 167.47 581.99 160.97 586.9 154.51 591.65 147.93 593.89 144.82 596.13 141.72 598.37 138.61 599.63 136.86 600.89 135.12 602.15 133.37 605.98 128.06 606.94 121.5 607.96 115.19 609.62 104.93 597.49 95.74 588.1 100.55Z" fill="currentColor"></path></g></g></svg>
