<svg viewBox="0 0 637.56 402.5" xmlns="http://www.w3.org/2000/svg" xmlns:xlink="http://www.w3.org/1999/xlink" id="Layer_2" overflow="hidden">
<defs></defs><g id="Layer_1-2"><g><path d="M93.04 139.54C98.33 131.37 104.1 123.54 110.13 115.9 117.93 106.02 126.58 97 133.57 86.53 138.27 79.49 135.78 67.7 129.53 62.35 123.16 56.91 112.25 54.53 105.07 60.08 95.58 67.41 88.3 76.44 81.07 85.93 74.03 95.17 67.42 104.77 61.13 114.54 50.84 130.5 41.82 147.28 34.15 164.64 17.59 202.07 5.51 241.92 1.63 282.79 0.49 294.83-0.46 307.18 0.25 319.25 0.72 327.22 0.61 335.69 3.65 343.13 5.61 347.92 8.38 352.12 13.75 353.24 20.65 354.69 26.66 350.15 28.47 343.63 29.27 340.75 30.4 338.82 30.83 335.9 31.03 334.55 31.07 333.16 31.19 331.8 31.38 329.73 31.56 327.66 31.8 325.59 32.48 319.85 33.35 314.14 33.98 308.39 34.96 299.32 36.25 290.27 37.83 281.28 38.6 276.91 39.47 272.57 40.3 268.21 40.47 267.3 40.66 266.4 40.83 265.49 41.39 263.02 41.92 260.55 42.5 258.09 44.55 249.41 46.89 240.79 49.52 232.27 52.08 223.98 54.91 215.76 58 207.65 59.52 203.65 61.14 199.7 62.76 195.74 62.81 195.63 62.86 195.52 62.91 195.4 63.33 194.47 63.74 193.54 64.15 192.61 65.19 190.28 66.26 187.97 67.35 185.66 74.88 169.73 83.46 154.31 93.05 139.52Z" class="MsftOfcThm_Accent4_Fill_v2" stroke="none" stroke-width="1" stroke-linecap="butt" stroke-linejoin="miter" stroke-miterlimit="4" fill="currentColor" fill-opacity="1"></path><path d="M168.72 47.15C181.06 47.15 192.73 35.9 192.01 23.29 191.27 10.39 181.37 0 168.15 0 155.81 0 144.14 11.25 144.86 23.86 145.6 36.76 155.5 47.15 168.73 47.15Z" class="MsftOfcThm_Accent4_Fill_v2" stroke="none" stroke-width="1" stroke-linecap="butt" stroke-linejoin="miter" stroke-miterlimit="4" fill="currentColor" fill-opacity="1"></path><path d="M150.06 264.64C151.42 262.55 152.79 260.47 154.18 258.4 154.45 258.02 155.65 256.3 155.74 256.17 156.82 254.64 157.91 253.11 159 251.59 172.45 232.93 187.31 215.28 203.39 198.83 205.36 196.81 207.35 194.82 209.36 192.84 210.14 192.08 210.92 191.31 211.7 190.56 212.19 190.12 213.44 188.95 213.59 188.81 218.05 184.65 222.59 180.58 227.22 176.6 235.76 169.25 244.57 162.22 253.63 155.52 258.92 151.61 264.3 147.82 269.75 144.15 272.47 142.32 275.2 140.52 277.95 138.74 278.63 138.3 280.96 137.27 281.43 136.55 281.84 136.3 282.25 136.04 282.67 135.79 293.82 129 305.27 122.74 316.99 116.99 327.37 111.89 333.13 98.18 327.49 87.52 321.98 77.11 309.1 71.49 298.02 77.02 253.37 99.33 213.49 129.04 178.29 164.32 144.79 197.9 115.82 237.13 95.7 280.16 91.99 288.09 88.3 296.04 84.96 304.13 81.76 311.86 79.5 319.67 77.14 327.72 73.21 341.1 69.93 354.8 66.93 368.41 63.7 383.06 87.28 389.88 92.39 375.62 96.65 363.74 101.25 352.13 106.95 340.87 109.74 335.35 112.75 329.93 115.49 324.38 116.78 321.77 117.99 319.12 119.27 316.51 120.59 313.83 121.2 312.73 123.04 309.32 128.56 299.08 134.45 289.04 140.67 279.2 143.76 274.32 146.92 269.49 150.06 264.64Z" class="MsftOfcThm_Accent4_Fill_v2" stroke="none" stroke-width="1" stroke-linecap="butt" stroke-linejoin="miter" stroke-miterlimit="4" fill="currentColor" fill-opacity="1"></path><path d="M392.11 66.57C398.09 66.57 403.4 65.62 408.17 61.7 412.33 58.29 415.79 52.36 416.08 46.9 416.66 35.99 408.69 22.92 396.4 22.92 390.42 22.92 385.11 23.87 380.34 27.79 376.18 31.2 372.72 37.13 372.43 42.59 371.85 53.5 379.82 66.57 392.11 66.57Z" class="MsftOfcThm_Accent4_Fill_v2" stroke="none" stroke-width="1" stroke-linecap="butt" stroke-linejoin="miter" stroke-miterlimit="4" fill="currentColor" fill-opacity="1"></path><path d="M449.22 203.6C449.35 203.56 449.5 203.5 449.66 203.44 449.52 203.49 449.38 203.54 449.24 203.59L449.22 203.59Z" class="MsftOfcThm_Accent4_Fill_v2" stroke="none" stroke-width="1" stroke-linecap="butt" stroke-linejoin="miter" stroke-miterlimit="4" fill="currentColor" fill-opacity="1"></path><path d="M521.16 130.5C464.14 145.18 408.8 168.54 357.16 196.71 306.37 224.42 257.42 257.45 214.47 296.33 201.3 308.26 187.09 320.21 175.85 334.06 163.59 349.17 151.46 364.3 140.03 380.06 135.86 385.81 137 393.92 142.07 398.63 146.95 403.15 155.55 404.16 160.74 399.29 173.76 387.07 187.1 375.35 200.84 363.94 207.47 358.43 213.84 352.72 220.24 346.94 220.46 346.74 220.68 346.54 220.9 346.35 221.37 345.24 223.99 343.65 224.95 342.82 227.85 340.3 230.78 337.81 233.72 335.33 255.24 317.21 277.47 299.84 300.54 283.75 346.33 251.82 396.04 225.37 447.69 204.24 448.2 204.03 448.7 203.83 449.21 203.62 449.19 203.62 449.16 203.64 449.14 203.64 449.17 203.64 449.2 203.62 449.22 203.61 449.64 203.44 450.07 203.27 450.49 203.09 452.7 202.19 451.33 202.8 450.08 203.28 451.66 202.7 453.21 202.03 454.77 201.43 458.3 200.07 461.83 198.73 465.38 197.43 472.95 194.64 480.56 191.96 488.21 189.4 503.02 184.45 517.96 179.8 532.94 175.41 544.58 172 553.29 159.27 549.5 147.06 545.76 135 533.75 127.26 521.15 130.5Z" class="MsftOfcThm_Accent4_Fill_v2" stroke="none" stroke-width="1" stroke-linecap="butt" stroke-linejoin="miter" stroke-miterlimit="4" fill="currentColor" fill-opacity="1"></path><path d="M450.09 203.28C449.94 203.33 449.8 203.4 449.65 203.45 449.79 203.4 449.94 203.34 450.09 203.28Z" class="MsftOfcThm_Accent4_Fill_v2" stroke="none" stroke-width="1" stroke-linecap="butt" stroke-linejoin="miter" stroke-miterlimit="4" fill="currentColor" fill-opacity="1"></path><path d="M220.91 346.33C221.26 346.01 221.62 345.69 221.97 345.38 223.7 343.82 221 346.21 220.91 346.33Z" class="MsftOfcThm_Accent4_Fill_v2" stroke="none" stroke-width="1" stroke-linecap="butt" stroke-linejoin="miter" stroke-miterlimit="4" fill="currentColor" fill-opacity="1"></path><path d="M220.91 346.33 220.91 346.33 220.91 346.34 220.91 346.33Z" class="MsftOfcThm_Accent4_Fill_v2" stroke="none" stroke-width="1" stroke-linecap="butt" stroke-linejoin="miter" stroke-miterlimit="4" fill="currentColor" fill-opacity="1"></path><path d="M622.26 104.96C613.12 104.96 603.5 109.95 602.68 120.21 602 128.73 608.1 139.79 617.93 139.79 627.07 139.79 636.69 134.8 637.51 124.54 638.19 116.02 632.09 104.96 622.26 104.96Z" class="MsftOfcThm_Accent4_Fill_v2" stroke="none" stroke-width="1" stroke-linecap="butt" stroke-linejoin="miter" stroke-miterlimit="4" fill="currentColor" fill-opacity="1"></path></g></g></svg>
