<svg viewBox="0 0 596.9 359.58" xmlns="http://www.w3.org/2000/svg" xmlns:xlink="http://www.w3.org/1999/xlink" id="Layer_2" overflow="hidden"><defs></defs><g id="Layer_1-2"><g><path d="M155.85 284.88C149.58 273.65 143.33 262.4 137.12 251.14 127.01 232.8 116.58 214.65 106.16 196.49 103 190.98 100.17 185.03 96.02 180.2 87.97 170.81 78.79 159.98 65.32 161.02 58.86 161.52 53.61 164.66 51.1 170.76 49.43 174.81 49.64 179.36 49.37 183.67 49.06 188.7 48.82 190.25 49.8 194.44 51.58 202.08 54.55 208.86 58.42 215.6 71.12 237.73 83.96 259.77 96.91 281.76 102.66 291.51 108.4 301.26 114.16 311.01 117.04 315.89 119.92 320.76 122.8 325.64 124.31 328.2 125.75 330.83 127.35 333.34 132.71 341.71 138.55 347.59 147.11 352.36 152.99 355.64 159.18 356.88 165.52 353.84 171.2 351.12 175.77 345.02 175.9 338.56 176.33 317.9 165.33 301.9 155.84 284.9Z" fill="currentColor"></path><path d="M289.16 140.03C288.57 132.57 287.35 126.27 282.03 120.56 277.66 115.87 270.31 112.11 263.78 112.09 248.45 112.04 237.62 122.61 235.84 137.47 234.09 152.06 234.45 166.99 234.07 181.68 233.7 196.06 233.33 210.45 232.97 224.83 232.53 242.34 232.15 259.74 232.54 277.26 232.74 286.22 233.25 294.51 234.69 303.45 236.24 313.02 239.39 321.86 241.89 331.15 243.5 337.14 247.22 342.11 253.81 342.91 259.57 343.61 266.3 340.12 268.2 334.4 270 328.98 272.43 323.83 274.17 318.4 276.14 312.26 277.96 306.01 279.43 299.72 281.84 289.41 282.33 278.52 283.47 267.99 285.01 253.73 285.04 239.17 285.73 224.84 286.42 210.53 287.1 196.22 287.78 181.91 288.44 168.12 290.27 153.8 289.17 140.04Z" fill="currentColor"></path><path d="M407.27 150.11C400.3 145.98 392.44 145.59 384.89 148.32 376.49 151.36 371.6 159.94 368.32 167.68 366.22 172.62 364.65 177.84 362.82 182.89 356.13 201.41 348.82 219.83 342.83 238.59 339.86 247.88 336.85 257.15 333.79 266.4 332.99 268.81 332.2 271.22 331.41 273.63 329.48 279.51 328.74 284.52 327.49 290.95 326.19 297.68 325.34 304.47 324.51 311.27 323.57 319 321.88 326.48 320.07 334.07 318.55 340.45 323.76 347.17 329.67 348.74 336.37 350.53 342.37 347.34 345.54 341.28 354.21 324.68 366.62 310 374.2 292.87 379.33 281.28 384.3 269.59 389.18 257.89 397.17 238.75 404.14 219.12 411.57 199.75 413.34 195.12 415.12 190.5 416.89 185.87 421.85 172.94 420.09 157.72 407.26 150.11Z" fill="currentColor"></path><path d="M550.35 233.54C549.35 227.3 545.37 220.29 540 216.75 527.45 208.47 513.53 211.68 504.02 222.54 489.43 239.21 474.73 255.78 460.42 272.69 453.62 280.72 446.83 288.76 440.05 296.8 435.35 302.37 431.38 308.52 427.37 314.6 426.18 316.41 425 318.22 423.85 320.05 422.62 321.99 421.23 323.93 420.2 325.97 418.92 328.51 418.4 332.56 417.39 335.47 415.14 341.95 415.13 348.14 419.91 353.61 423.84 358.11 431.88 361.39 437.75 358.49 444.4 355.21 450.59 352.94 456.23 348.13 459.84 345.06 463.42 341.95 466.97 338.81 471.37 334.92 475.47 330.9 479.43 326.57 487.07 318.23 494.71 309.88 502.34 301.52 517.02 285.44 531.35 269.03 545.79 252.72 549.91 248.06 551.29 239.41 550.35 233.53Z" fill="currentColor"></path><path d="M575.37 151.44C563.53 151.44 551.68 160.3 551.62 172.96 551.57 184.75 560.45 196.71 573.14 196.71 584.98 196.71 596.83 187.85 596.89 175.19 596.94 163.4 588.06 151.44 575.37 151.44Z" fill="currentColor"></path><path d="M477.86 110.27C477.12 97.37 467.22 86.98 454 86.98 441.66 86.98 429.99 98.23 430.71 110.84 431.45 123.74 441.35 134.13 454.58 134.13 466.92 134.13 478.59 122.88 477.87 110.27Z" fill="currentColor"></path><path d="M278.57 0C268.74 0 258.98 7.67 259.04 18.11 259.1 27.99 266.6 37.64 277.15 37.64 286.98 37.64 296.74 29.97 296.68 19.53 296.62 9.65 289.12 0 278.58 0Z" fill="currentColor"></path><path d="M55.64 59.8C55.24 53.13 52.08 46.45 46.21 42.77 44.49 41.89 42.78 41.02 41.06 40.14 38.07 38.17 34.75 37.31 31.09 37.57 28.47 37.44 25.84 37.46 23.22 37.41 10.77 37.15-0.82 49.33 0.05 61.74 0.94 74.62 11.07 85.21 24.39 84.91 26.83 84.86 29.28 84.88 31.72 84.75 44.93 84.01 56.48 73.58 55.65 59.8Z" fill="currentColor"></path></g></g></svg>
