<svg viewBox="0 0 265.47 219.34" xmlns="http://www.w3.org/2000/svg" xmlns:xlink="http://www.w3.org/1999/xlink" id="Layer_2" overflow="hidden">
<defs></defs><g id="Layer_1-2"><g><path d="M72.11 67.5 150.4 155.41C159.15 165.23 173.53 150.77 164.82 140.99 138.72 111.69 112.63 82.38 86.53 53.08 77.78 43.26 63.4 57.72 72.11 67.51L72.11 67.51Z" class="MsftOfcThm_Text1_Fill_v2" stroke="none" stroke-width="1" stroke-linecap="butt" stroke-linejoin="miter" stroke-miterlimit="4" fill="currentColor" fill-opacity="1"></path><path d="M88.86 154C126.04 97.52 178.56 52.13 239.5 22.91 244.47 20.53 245.78 13.43 243.16 8.95 240.19 3.87 234.19 2.9 229.2 5.29 179.77 28.99 135.29 63.37 99.94 105.28 89.63 117.5 80.04 130.34 71.25 143.69 64.01 154.69 81.67 164.92 88.86 153.99L88.86 153.99Z" class="MsftOfcThm_Text1_Fill_v2" stroke="none" stroke-width="1" stroke-linecap="butt" stroke-linejoin="miter" stroke-miterlimit="4" fill="currentColor" fill-opacity="1"></path><path d="M129.46 0.02C88.87 2.62 48.59 9.21 9.33 19.84 4.79 21.07 2.12 25.17 1.84 29.68-1.77 88.53-0.06 147.61 6.96 206.15 7.66 211.96 11.09 215.89 17.16 216.35 97.6 222.46 178.44 219.15 258.18 207 264.01 206.11 266.11 199.34 265.3 194.45 258.71 154.53 256.58 113.97 258.54 73.57 259.18 60.45 238.78 60.48 238.14 73.57 236.09 115.84 238.74 158.12 245.63 199.87 248 195.69 250.38 191.51 252.75 187.32 174.88 199.18 95.68 201.9 17.15 195.94 20.55 199.34 23.95 202.74 27.35 206.14 20.33 147.6 18.62 88.52 22.23 29.68 19.73 32.96 17.24 36.24 14.74 39.52 52.28 29.35 90.64 22.91 129.45 20.42 134.95 20.07 139.65 15.98 139.65 10.22 139.65 4.97 134.98-0.33 129.45 0.02L129.45 0.02Z" class="MsftOfcThm_Text1_Fill_v2" stroke="none" stroke-width="1" stroke-linecap="butt" stroke-linejoin="miter" stroke-miterlimit="4" fill="currentColor" fill-opacity="1"></path></g></g></svg>
