<svg viewBox="0 0 335.19 321.14" xmlns="http://www.w3.org/2000/svg" xmlns:xlink="http://www.w3.org/1999/xlink" id="Layer_2" overflow="hidden">
<defs></defs><g id="Layer_1-2"><g><path d="M139.95 67.87C116.85 62.73 93.35 66.98 73.6 80.1 54.33 92.9 39.39 111.58 28.37 131.74 22.86 141.82 18.23 152.46 14.51 163.33 11.38 172.47 7.8 181.46 5.25 190.79 1.17 205.7-1.12 221.6 0.56 237.05 3.53 264.37 18.24 287.35 41.72 301.65 65.39 316.06 94.24 320.97 121.58 321.14 152.25 321.33 183.36 315.56 212.04 304.73 239.45 294.38 266.14 279.43 286.13 257.66 300.63 241.86 312.53 222.62 321.09 203 329.2 184.41 334.53 164.78 335.14 144.42 336.22 108.66 321.5 74.37 296.21 49.31 239.6-6.78 148.45-12.36 78.34 19.16 68.75 23.47 59.52 28.53 50.66 34.18 39.62 41.22 49.84 58.88 60.96 51.79 93.84 30.83 131.45 19.57 169.9 20.14 203.35 20.63 236.25 29.82 264.2 49.09 288.7 65.98 307.2 91.09 313.04 121.2 313.93 125.8 314.03 126.65 314.37 130.69 314.73 134.9 314.86 139.12 314.76 143.34 314.56 152.78 313.68 159.13 311.5 168.3 306.8 188.05 298.01 206.11 286.87 223.1 278.54 235.8 269.54 246.73 257.49 256.6 256.85 257.13 256.2 257.65 255.55 258.17 253.37 259.92 257.21 256.93 254.97 258.63 253.85 259.48 252.72 260.31 251.58 261.14 248.57 263.3 245.5 265.37 242.36 267.34 236.67 270.91 230.79 274.18 224.78 277.16 221.71 278.68 218.61 280.13 215.47 281.5 214.78 281.8 214.1 282.1 213.41 282.39 215.52 281.49 212.76 282.65 212.52 282.75 210.56 283.54 208.6 284.32 206.62 285.07 200.08 287.54 193.43 289.72 186.7 291.63 179.65 293.63 172.52 295.32 165.32 296.7 162.04 297.33 158.74 297.9 155.43 298.4 154.53 298.54 153.63 298.67 152.73 298.79 149.73 299.21 154.84 298.54 151.84 298.9 150.04 299.12 148.25 299.33 146.45 299.51 132.76 300.92 118.92 301.19 105.2 299.99 103.51 299.84 101.83 299.67 100.15 299.48 99.32 299.38 98.48 299.28 97.65 299.18 100.27 299.51 97.48 299.15 97.06 299.09 93.81 298.59 90.58 298.03 87.37 297.36 81.43 296.11 75.57 294.51 69.84 292.5 68.39 291.99 66.96 291.46 65.53 290.89 64.82 290.61 64.12 290.33 63.42 290.03 65.9 291.07 63.53 290.06 63.09 289.86 60.4 288.6 57.74 287.32 55.15 285.88 52.83 284.59 50.57 283.2 48.37 281.72 47.19 280.92 46.04 280.09 44.89 279.24 42.91 277.78 46.61 280.66 44.72 279.1 44 278.5 43.27 277.91 42.56 277.3 40.62 275.62 38.77 273.85 37.01 271.99 36.14 271.06 35.29 270.11 34.46 269.14 34.09 268.7 33.72 268.25 33.35 267.8 32.23 266.45 34.48 269.46 32.83 267.11 31.36 265.01 29.93 262.9 28.66 260.67 27.96 259.44 27.3 258.2 26.68 256.93 26.37 256.29 26.07 255.64 25.77 255 24.52 252.37 26.02 255.8 25.4 254.13 23.36 248.71 21.89 243.21 20.99 237.49 20.57 234.83 21.21 239.76 20.95 237.06 20.87 236.26 20.78 235.46 20.72 234.66 20.61 233.3 20.53 231.93 20.47 230.56 20.33 226.83 20.41 223.08 20.68 219.36 20.79 217.85 20.94 216.34 21.1 214.84 21.13 214.57 21.54 211.53 21.21 213.85 21.34 212.91 21.49 211.96 21.65 211.02 22.3 207.07 23.14 203.16 24.12 199.28 26.35 190.48 29.72 182.18 32.61 173.61 44.54 138.11 67.83 96.78 106.85 87.49 115.63 85.4 125.29 85.51 134.53 87.57 147.32 90.42 152.78 70.76 139.95 67.9L139.95 67.9Z" class="cls-1 MsftOfcThm_Text1_Fill_v2" stroke="none" stroke-width="1" stroke-linecap="butt" stroke-linejoin="miter" stroke-miterlimit="4" fill="currentColor" fill-opacity="1"></path><path d="M109.65 139.26C145.55 182.22 187.88 219.56 234.79 250.11 245.82 257.3 256.06 239.64 245.09 232.5 199.6 202.88 158.88 166.49 124.08 124.84 120.55 120.61 113.31 121.19 109.66 124.84 105.47 129.03 106.12 135.02 109.66 139.26L109.66 139.26Z" class="cls-1 MsftOfcThm_Text1_Fill_v2" stroke="none" stroke-width="1" stroke-linecap="butt" stroke-linejoin="miter" stroke-miterlimit="4" fill="currentColor" fill-opacity="1"></path><path d="M115.65 228.66C159.24 182.16 202.84 135.66 246.43 89.16 255.4 79.59 241.01 65.13 232.01 74.74 188.42 121.24 144.82 167.74 101.23 214.24 92.26 223.81 106.65 238.27 115.65 228.66L115.65 228.66Z" class="cls-1 MsftOfcThm_Text1_Fill_v2" stroke="none" stroke-width="1" stroke-linecap="butt" stroke-linejoin="miter" stroke-miterlimit="4" fill="currentColor" fill-opacity="1"></path></g></g></svg>
