<svg viewBox="0 0 362.83 339.23" xmlns="http://www.w3.org/2000/svg" xmlns:xlink="http://www.w3.org/1999/xlink" id="Layer_2" overflow="hidden">
<defs></defs><g id="Layer_1-2"><g><path d="M155.33 0.04C120.06 3.48 83.95 12.53 54.93 33.75 31.8 50.66 14.57 73.85 6.13 101.33-1.98 127.72-1.55 156.24 4.54 183 10.82 210.58 23.42 237.01 40.37 259.61 58.33 283.56 80.91 304.08 107.45 318.16 134.85 332.7 165.81 340.24 196.87 339.13 236.01 337.73 275.59 324.86 305.67 299.42 338.03 272.05 359.07 231.45 362.42 189.2 366.07 143.29 345.39 100.07 308.65 72.73 266.95 41.7 211.81 37.44 161.62 39.43 149.29 39.92 136.98 40.8 124.68 41.82 119.19 42.27 114.48 46.18 114.48 52.02 114.48 57.19 119.16 62.68 124.68 62.22 172.18 58.3 222.85 55.31 268.06 73.31 288.3 81.37 307.26 94.91 320.29 112.05 326 119.56 331.46 129.1 334.57 137.03 337.85 145.4 340.62 156.12 341.55 163.69 346.13 201.11 332.86 239.36 308.63 267.67 295.88 282.58 281.27 294.2 263.65 302.78 248.6 310.12 230.24 314.74 213.07 317.34 209.97 317.81 215.14 317.1 212.05 317.48 211.12 317.59 210.19 317.71 209.26 317.81 207.72 317.98 206.18 318.12 204.64 318.25 200.69 318.57 196.73 318.76 192.77 318.81 185.36 318.9 177.97 318.46 170.61 317.58 167.7 317.23 172.75 317.91 169.86 317.48 169 317.35 168.14 317.22 167.28 317.08 165.57 316.8 163.87 316.5 162.17 316.17 158.52 315.46 154.89 314.63 151.3 313.67 144.47 311.85 137.79 309.57 131.23 306.95 130.89 306.82 128.3 305.7 130.56 306.68 129.79 306.35 129.02 306.01 128.25 305.67 126.85 305.04 125.45 304.4 124.07 303.73 120.93 302.22 117.83 300.62 114.78 298.93 108.71 295.56 102.84 291.84 97.2 287.8 95.85 286.83 94.51 285.84 93.19 284.84 90.96 283.17 94.81 286.13 92.62 284.41 91.97 283.9 91.32 283.38 90.67 282.86 87.87 280.61 85.14 278.27 82.47 275.86 77.35 271.24 72.48 266.35 67.87 261.23 65.66 258.78 63.52 256.27 61.43 253.71 60.56 252.65 59.71 251.57 58.86 250.49 60.37 252.42 58.67 250.24 58.45 249.95 57.79 249.07 57.14 248.2 56.49 247.31 52.46 241.8 48.71 236.1 45.26 230.22 41.84 224.4 38.7 218.4 35.87 212.27 35.2 210.81 34.55 209.34 33.9 207.86 32.81 205.37 34.71 209.85 33.68 207.34 33.38 206.6 33.07 205.86 32.78 205.11 31.5 201.9 30.31 198.65 29.21 195.38 27.2 189.4 25.48 183.33 24.1 177.17 23.42 174.13 22.81 171.08 22.29 168.01 22.03 166.48 21.8 164.96 21.58 163.42 21.2 160.79 21.84 165.71 21.54 163.08 21.42 162.06 21.3 161.05 21.19 160.03 20.54 153.73 20.25 147.38 20.37 141.04 20.43 138.04 20.58 135.03 20.82 132.04 20.94 130.55 21.09 129.06 21.26 127.58 21.34 126.84 21.44 126.1 21.53 125.36 21.14 128.36 21.61 124.97 21.7 124.39 22.63 118.54 23.94 112.75 25.67 107.09 26.53 104.27 27.49 101.47 28.55 98.72 28.82 98.03 29.09 97.35 29.37 96.66 30.31 94.29 28.45 98.7 29.49 96.37 30.19 94.79 30.9 93.22 31.66 91.67 34.4 86.07 37.59 80.69 41.19 75.6 41.61 75 44.39 71.3 42.77 73.39 43.71 72.18 44.68 70.99 45.67 69.82 47.85 67.24 50.13 64.76 52.52 62.37 54.78 60.11 57.12 57.95 59.55 55.87 60.79 54.81 62.05 53.78 63.32 52.77 65.48 51.05 61.64 54 63.87 52.35 64.54 51.85 65.21 51.36 65.88 50.87 71.74 46.64 77.94 42.89 84.37 39.6 87.64 37.92 90.98 36.35 94.36 34.91 92.36 35.77 95.25 34.55 95.42 34.49 96.31 34.14 97.2 33.78 98.1 33.44 100.23 32.62 102.37 31.85 104.52 31.11 112.72 28.31 121.1 26.08 129.58 24.31 138.88 22.38 146.4 21.31 155.32 20.44 160.8 19.91 165.52 16.13 165.52 10.24 165.52 5.14 160.84-0.5 155.32 0.04L155.32 0.04Z" class="cls-1 MsftOfcThm_Text1_Fill_v2" stroke="none" stroke-width="1" stroke-linecap="butt" stroke-linejoin="miter" stroke-miterlimit="4" fill="currentColor" fill-opacity="1"></path><path d="M98.48 125.7C135.46 175.55 180.74 218.5 232.66 252.55 243.67 259.77 253.9 242.11 242.96 234.94 194.15 202.93 150.89 162.31 116.09 115.41 112.81 110.99 107.26 108.75 102.13 111.75 97.77 114.3 95.17 121.26 98.47 125.71L98.47 125.71Z" class="cls-1 MsftOfcThm_Text1_Fill_v2" stroke="none" stroke-width="1" stroke-linecap="butt" stroke-linejoin="miter" stroke-miterlimit="4" fill="currentColor" fill-opacity="1"></path><path d="M108.72 221.15C164.45 170.03 224.55 123.83 288.34 83.2 306.44 71.67 324.83 60.6 343.47 49.97 354.87 43.47 344.61 25.83 333.17 32.36 266.25 70.54 202.75 114.59 143.46 163.8 126.72 177.7 110.33 192.03 94.3 206.73 84.6 215.62 99.06 230.02 108.73 221.15L108.73 221.15Z" class="cls-1 MsftOfcThm_Text1_Fill_v2" stroke="none" stroke-width="1" stroke-linecap="butt" stroke-linejoin="miter" stroke-miterlimit="4" fill="currentColor" fill-opacity="1"></path></g></g></svg>
