<svg viewBox="0 0 208.84 225.87" xmlns="http://www.w3.org/2000/svg" xmlns:xlink="http://www.w3.org/1999/xlink" id="Layer_2" overflow="hidden">
<defs></defs><g id="Layer_1-2"><g><path d="M16.99 75.08C61.26 121.33 112.22 161.14 167.78 192.95 179.19 199.48 189.48 181.86 178.08 175.34 123.92 144.34 74.57 105.74 31.41 60.66 22.31 51.16 7.9 65.6 16.98 75.08L16.98 75.08Z" class="MsftOfcThm_Text1_Fill_v2" stroke="none" stroke-width="1" stroke-linecap="butt" stroke-linejoin="miter" stroke-miterlimit="4" fill="currentColor" fill-opacity="1"></path><path d="M17.29 222.91C61.79 165.77 109.8 111.39 161.06 60.22 175.67 45.63 190.55 31.31 205.67 17.25 215.3 8.29 200.85-6.11 191.24 2.82 138.22 52.15 88.24 104.74 41.76 160.28 28.51 176.11 15.55 192.19 2.86 208.48-0.52 212.82-1.37 218.67 2.86 222.91 6.38 226.43 13.88 227.28 17.29 222.91L17.29 222.91Z" class="MsftOfcThm_Text1_Fill_v2" stroke="none" stroke-width="1" stroke-linecap="butt" stroke-linejoin="miter" stroke-miterlimit="4" fill="currentColor" fill-opacity="1"></path></g></g></svg>
