<svg viewBox="0 0 274.07 218.34" xmlns="http://www.w3.org/2000/svg" xmlns:xlink="http://www.w3.org/1999/xlink" id="Layer_2" overflow="hidden">
<defs></defs><g id="Layer_1-2"><g><path d="M200.38 0.51C162.95 1.37 125.55 0.84 88.13 0.38 68.38 0.14 46.84-1.36 27.56 3.92 13.86 7.68 3.7 17.15 1.21 31.44-2.12 50.59 2.18 70.95 5.01 89.87 7.21 104.62 9.52 119.35 11.63 134.11 14.25 152.48 16.64 171.42 18.72 191.14 19.32 196.79 19.88 202.44 20.41 208.1 20.89 213.12 24.72 218.94 30.61 218.3 64.27 214.67 98.05 212.47 131.9 211.74 151.03 211.33 170.35 211.99 189.43 210.32 201.31 209.28 214.59 207.19 222.98 197.77 231.97 187.67 233.58 173.51 234.64 160.59 236.75 134.84 236.36 108.84 237.35 83.03 237.85 69.9 217.45 69.92 216.95 83.03 216.05 106.4 216.02 129.83 214.73 153.18 214.52 156.97 214.26 160.75 213.87 164.53 213.78 165.41 213.67 166.3 213.57 167.18 213.28 169.86 213.95 164.99 213.57 167.23 213.3 168.77 213.09 170.32 212.78 171.85 212.25 174.46 211.52 176.96 210.69 179.49 209.66 182.66 211.84 177.62 210.32 180.31 209.78 181.27 209.23 182.22 208.67 183.16 207.23 185.58 210.32 181.64 208.34 183.57 207.66 184.23 206.67 184.95 206.11 185.69 205.79 186.12 208.6 184.14 206.68 185.21 206.31 185.41 205.97 185.68 205.61 185.89 204.69 186.45 203.58 186.8 202.69 187.4 205.68 185.39 203.2 187.18 201.66 187.67 200.44 188.06 199.19 188.38 197.94 188.66 196.64 188.95 195.32 189.18 194.01 189.4 193.42 189.5 192.82 189.56 192.23 189.66 196.13 189.01 192.57 189.59 191.65 189.69 174.07 191.54 156.18 190.89 138.54 191.2 102.47 191.82 66.48 194.02 30.6 197.89 34 201.29 37.4 204.69 40.8 208.09 37.29 171.06 32.25 134.22 26.64 97.46 25.66 91.06 24.68 84.66 23.75 78.26 23.39 75.76 23.04 73.25 22.69 70.75 22.36 68.4 22.99 73.19 22.71 70.87 22.63 70.24 22.54 69.6 22.46 68.97 22.28 67.54 22.1 66.12 21.93 64.69 20.98 56.64 20.15 48.46 20.57 40.34 20.61 39.55 20.68 38.77 20.73 37.98 20.75 37.6 20.82 37.23 20.84 36.85 20.94 34.93 20.56 37.94 20.66 38.1 20.25 37.42 21.32 34.49 21.52 33.71 21.64 33.26 22.26 30.23 22.7 30.13 22.64 30.14 21.14 33.04 22.54 30.68 22.88 30.1 23.22 29.52 23.55 28.93 25.12 26.21 21.77 30.48 24.03 28.32 24.43 27.93 24.85 27.53 25.23 27.12 26.84 25.4 25.51 27.01 24.95 27.26 26.01 26.79 26.99 25.9 28.03 25.35 28.58 25.06 29.24 24.86 29.76 24.52 29.18 24.91 27.43 25.32 29.83 24.56 32.79 23.61 35.75 22.84 38.81 22.31 39.67 22.16 40.55 22.06 41.41 21.9 43.25 21.56 38.63 22.16 40.52 22.02 40.99 21.98 41.46 21.9 41.93 21.85 44.11 21.63 46.29 21.42 48.48 21.27 59.02 20.56 69.61 20.6 80.16 20.69 120.23 21 160.26 21.82 200.34 20.9 213.45 20.6 213.49 0.2 200.34 0.5L200.34 0.5Z" class="MsftOfcThm_Text1_Fill_v2" stroke="none" stroke-width="1" stroke-linecap="butt" stroke-linejoin="miter" stroke-miterlimit="4" fill="currentColor" fill-opacity="1"></path><path d="M87.91 159.05C122.53 111.3 168.74 72.27 221.17 45.38 235.86 37.85 251 31.35 266.58 25.87 271.77 24.04 275.24 18.9 273.7 13.32 272.32 8.29 266.37 4.36 261.15 6.2 201.96 27.05 147.93 61.77 104.64 107.26 92.25 120.28 80.84 134.21 70.29 148.76 67.05 153.22 69.53 160.13 73.95 162.72 79.1 165.73 84.66 163.53 87.91 159.06L87.91 159.06Z" class="MsftOfcThm_Text1_Fill_v2" stroke="none" stroke-width="1" stroke-linecap="butt" stroke-linejoin="miter" stroke-miterlimit="4" fill="currentColor" fill-opacity="1"></path><path d="M73.21 76.08C96.33 117.81 130.22 153.07 170.86 178.01 182.08 184.9 192.34 167.26 181.16 160.4 143.4 137.23 112.29 104.53 90.83 65.79 84.47 54.3 66.84 64.58 73.22 76.09L73.22 76.09Z" class="MsftOfcThm_Text1_Fill_v2" stroke="none" stroke-width="1" stroke-linecap="butt" stroke-linejoin="miter" stroke-miterlimit="4" fill="currentColor" fill-opacity="1"></path></g></g></svg>
