<svg viewBox="0 0 253.28 201.69" xmlns="http://www.w3.org/2000/svg" xmlns:xlink="http://www.w3.org/1999/xlink" id="Layer_2" overflow="hidden">
<defs></defs><g id="Layer_1-2"><g><path d="M1.94 41.49C16.75 112.86 74.64 171.21 144.42 190.45 164.29 195.93 185.16 198.18 205.73 196.88 211.23 196.53 215.93 192.44 215.93 186.68 215.93 181.43 211.26 176.13 205.73 176.48 139.66 180.66 75.08 144.7 41.58 87.93 32.06 71.8 25.41 54.4 21.61 36.06 20.49 30.66 14.13 27.54 9.06 28.94 3.46 30.48 0.81 36.08 1.94 41.49L1.94 41.49Z" class="MsftOfcThm_Text1_Fill_v2" stroke="none" stroke-width="1" stroke-linecap="butt" stroke-linejoin="miter" stroke-miterlimit="4" fill="currentColor" fill-opacity="1"></path><path d="M17.3 198.73C66.16 139.75 124.78 89.18 190.49 49.8 209.25 38.56 228.55 28.24 248.3 18.85 253.27 16.48 254.57 9.36 251.96 4.89 248.98-0.2 243-1.15 238 1.23 167.37 34.86 102.5 80.65 47.06 135.85 31.56 151.28 16.83 167.47 2.88 184.31-0.63 188.55-1.27 194.58 2.88 198.74 6.5 202.36 13.77 203 17.3 198.74L17.3 198.74Z" class="MsftOfcThm_Text1_Fill_v2" stroke="none" stroke-width="1" stroke-linecap="butt" stroke-linejoin="miter" stroke-miterlimit="4" fill="currentColor" fill-opacity="1"></path></g></g></svg>
