<svg viewBox="0 0 327.09 283.42" xmlns="http://www.w3.org/2000/svg" xmlns:xlink="http://www.w3.org/1999/xlink" id="Layer_2" overflow="hidden">
<defs></defs><g id="Layer_1-2"><g><path d="M13.6 95.64C50.42 162.43 95.59 224.54 147.67 280.25 156.65 289.86 171.06 275.41 162.09 265.82 111.15 211.33 67.22 150.66 31.21 85.34 24.87 73.84 7.25 84.12 13.6 95.64L13.6 95.64Z" class="MsftOfcThm_Text1_Fill_v2" stroke="none" stroke-width="1" stroke-linecap="butt" stroke-linejoin="miter" stroke-miterlimit="4" fill="currentColor" fill-opacity="1"></path><path d="M20.17 256.02C38.74 207.75 68.29 163.95 104.92 127.55 141.53 91.18 185.54 61.71 233.54 42.62 261.22 31.62 290.14 23.92 319.64 19.82 325.1 19.06 328.09 12.09 326.76 7.27 325.14 1.39 319.69-0.62 314.21 0.15 260.17 7.67 207.96 27.44 161.81 56.46 115.43 85.62 75.05 123.96 43.69 168.89 26 194.26 11.61 221.73 0.5 250.6-1.48 255.74 2.69 261.79 7.62 263.15 13.38 264.73 18.18 261.19 20.17 256.03L20.17 256.03Z" class="MsftOfcThm_Text1_Fill_v2" stroke="none" stroke-width="1" stroke-linecap="butt" stroke-linejoin="miter" stroke-miterlimit="4" fill="currentColor" fill-opacity="1"></path></g></g></svg>
