<svg viewBox="0 0 331.34 295.82" xmlns="http://www.w3.org/2000/svg" xmlns:xlink="http://www.w3.org/1999/xlink" id="Layer_2" overflow="hidden">
<defs></defs><g id="Layer_1-2"><g><path d="M200.62 62.96C136.35 60.42 71.8 67.22 9.43 82.93 5.05 84.03 2 88.35 1.94 92.77 1.52 123.74 1.09 154.71 0.67 185.68 0.45 201.49 0.21 217.31 0.02 233.12-0.14 246.16 0.25 259.83 6.92 271.45 19.03 292.55 45.23 296.18 67.33 295.79 70.53 295.73 73.71 295.66 76.88 295.2 77.63 295.09 82.26 294.44 79.44 294.79 82.81 294.37 86.2 294.03 89.59 293.76 97.18 293.16 104.78 292.85 112.39 292.63 150.43 291.55 188.52 292.72 226.52 290.28 244.07 289.15 261.84 287.45 278.97 283.28 291.68 280.18 305.66 275.43 314.97 265.77 319.67 260.89 321.65 252.65 323.61 246.26 325.9 238.8 327.58 231.17 328.75 223.46 331.03 208.51 331.75 193.46 331.13 178.36 329.88 147.91 324.07 117.81 317.75 88.06 316.61 82.67 310.29 79.54 305.2 80.94 299.62 82.47 296.93 88.08 298.08 93.49 308.2 141.15 318.59 193 303.93 240.84 302.98 243.93 301.27 247.15 300.66 250.29 300.57 250.73 299.22 253.56 300.97 250.89 300.66 251.37 300.06 251.85 299.63 252.23 299.08 252.72 296.29 254.88 298.67 253.16 297.44 254.05 296.19 254.89 294.89 255.67 292.61 257.03 290.21 258.21 287.77 259.26 290.1 258.26 285.87 259.94 285.21 260.18 283.42 260.81 281.62 261.39 279.8 261.93 264.54 266.44 251.16 267.93 236 269.18 199.7 272.19 163.22 271.41 126.83 271.93 111.98 272.14 97.04 272.4 82.26 274.04 72.89 275.09 67.49 275.72 57.55 275.27 48.65 274.87 39.34 273.51 31.78 268.72 21.98 262.51 20.51 250.52 20.39 239.65 20.21 223.64 20.77 207.6 20.99 191.59 21.44 158.64 21.89 125.7 22.34 92.75 19.84 96.03 17.35 99.31 14.85 102.59 75.55 87.3 138.07 80.88 200.61 83.35 213.74 83.87 213.72 63.47 200.61 62.95L200.61 62.95Z" class="MsftOfcThm_Text1_Fill_v2" stroke="none" stroke-width="1" stroke-linecap="butt" stroke-linejoin="miter" stroke-miterlimit="4" fill="currentColor" fill-opacity="1"></path><path d="M123.3 117.22C132.21 174.36 176.77 223.48 232.27 239.02 244.93 242.57 250.34 222.89 237.69 219.35 188.43 205.56 150.82 162.16 142.97 111.8 142.12 106.35 135.3 103.34 130.42 104.68 124.61 106.28 122.44 111.76 123.3 117.23L123.3 117.23Z" class="MsftOfcThm_Text1_Fill_v2" stroke="none" stroke-width="1" stroke-linecap="butt" stroke-linejoin="miter" stroke-miterlimit="4" fill="currentColor" fill-opacity="1"></path><path d="M108.1 245.77C180.07 205.76 241 146.35 283.21 75.67 295.21 55.57 305.51 34.58 314.41 12.94 316.51 7.84 312.14 1.73 307.29 0.39 301.44-1.22 296.85 2.4 294.74 7.51 265.11 79.56 215.67 143.46 154.16 191.14 136.39 204.92 117.45 217.23 97.8 228.15 86.32 234.53 96.6 252.16 108.1 245.76L108.1 245.76Z" class="MsftOfcThm_Text1_Fill_v2" stroke="none" stroke-width="1" stroke-linecap="butt" stroke-linejoin="miter" stroke-miterlimit="4" fill="currentColor" fill-opacity="1"></path></g></g></svg>
