<svg viewBox="0 0 395.63 369.3" xmlns="http://www.w3.org/2000/svg" xmlns:xlink="http://www.w3.org/1999/xlink" id="Layer_2" overflow="hidden">
<defs></defs><g id="Layer_1-2"><g><path d="M135.01 134.24C162.91 189.14 198.67 239.93 240.78 284.85 249.78 294.45 264.18 280 255.2 270.43 214.22 226.72 179.76 177.36 152.62 123.95 146.67 112.24 129.07 122.56 135.01 134.25L135.01 134.25Z" class="cls-1 MsftOfcThm_Text1_Fill_v2" stroke="none" stroke-width="1" stroke-linecap="butt" stroke-linejoin="miter" stroke-miterlimit="4" fill="currentColor" fill-opacity="1"></path><path d="M144.29 272.76C169.67 218.65 211.66 173.28 263.59 143.7 278.24 135.35 293.56 128.33 309.47 122.76 314.67 120.94 318.12 115.78 316.59 110.21 315.2 105.17 309.27 101.26 304.04 103.09 243.42 124.32 190.7 164.38 153.42 216.63 143.12 231.06 134.19 246.42 126.66 262.47 124.32 267.45 125.27 273.47 130.32 276.43 134.74 279.02 141.93 277.78 144.28 272.77L144.28 272.77Z" class="cls-1 MsftOfcThm_Text1_Fill_v2" stroke="none" stroke-width="1" stroke-linecap="butt" stroke-linejoin="miter" stroke-miterlimit="4" fill="currentColor" fill-opacity="1"></path><path d="M203.4 31.76C164.95 25.64 123.85 24.87 87.06 39.35 58.69 50.51 34.47 69.93 19.24 96.56 4.97 121.48-0.94 150.73 0.12 179.28 1.25 209.87 9.83 240 24.2 266.98 39.13 295.02 60.72 319.4 86.94 337.34 115.36 356.79 149.09 367.34 183.38 369.05 203.1 370.03 222.98 367.97 242.27 363.84 252.84 361.57 263.4 358.73 273.58 355.07 281.22 352.32 288.49 347.8 295.49 343.72 301.97 339.93 308.32 335.91 314.48 331.62 353.75 304.28 387.18 264.93 394.18 216.21 400.38 173.06 386.34 130.14 360.26 95.75 330.23 56.14 287.78 27.86 241.3 11.01 229.15 6.6 216.71 3.06 204.09 0.27 191.3-2.56 185.83 17.11 198.67 19.94 245.02 30.18 289.08 51.42 322.91 84.14 338.2 98.93 349.83 113.85 359.65 132.86 364.4 142.06 367.16 148.81 370.18 159.23 371.5 163.79 372.6 168.41 373.47 173.07 374.52 178.7 374.67 179.84 375.09 185.8 375.43 190.65 375.51 195.51 375.32 200.36 375.23 202.63 375.08 204.9 374.87 207.17 374.77 208.31 374.64 209.44 374.51 210.57 374.47 210.9 374.24 212.57 374.49 210.77 374.4 211.42 374.31 212.07 374.2 212.71 372.57 222.63 369.92 232.31 366.17 241.64 365.81 242.54 364.9 244.61 363.86 246.81 362.73 249.2 361.52 251.56 360.26 253.88 357.65 258.68 354.77 263.33 351.66 267.83 345.57 276.63 338.1 285.1 329.82 293.03 320.46 302 310.28 309.99 299.49 317.16 288.37 324.56 276.24 332.78 263.5 336.93 253.79 340.09 243.91 342.74 233.89 344.76 229.09 345.73 224.27 346.56 219.42 347.22 221.37 346.96 218.44 347.33 217.87 347.4 216.77 347.53 215.68 347.65 214.58 347.76 212.11 348.01 209.63 348.23 207.15 348.4 198.37 349 189.55 349.05 180.76 348.49 178.75 348.36 176.74 348.2 174.74 348.01 173.75 347.92 172.76 347.81 171.76 347.7 171.13 347.63 167.88 347.22 168.91 347.36 170.08 347.52 167.47 347.15 166.93 347.06 165.97 346.91 165 346.76 164.04 346.59 162 346.24 159.96 345.86 157.93 345.44 150.02 343.81 142.22 341.64 134.6 338.94 132.86 338.32 131.14 337.68 129.42 337.01 128.57 336.68 127.72 336.33 126.87 335.99 124.68 335.11 128.02 336.53 125.35 335.34 121.93 333.81 118.54 332.21 115.22 330.49 108.56 327.03 102.14 323.14 95.98 318.85 94.43 317.77 92.91 316.66 91.39 315.54 90.68 315.01 89.15 313.83 90.76 315.09 89.97 314.48 89.18 313.86 88.4 313.23 85.48 310.89 82.64 308.45 79.88 305.93 74.48 301.01 69.39 295.77 64.61 290.25 63.48 288.95 62.37 287.63 61.28 286.29 60.74 285.62 60.19 284.95 59.66 284.28 59.35 283.9 59.05 283.51 58.75 283.12 57.56 281.62 59.53 284.15 58.77 283.14 56.64 280.3 54.55 277.43 52.55 274.49 48.45 268.44 44.69 262.16 41.29 255.7 39.6 252.49 38 249.23 36.49 245.93 35.79 244.4 35.11 242.85 34.44 241.3 35.23 243.14 34.63 241.76 34.22 240.74 33.86 239.85 33.5 238.96 33.15 238.06 28.02 224.92 24.28 211.23 22.13 197.29 22.01 196.48 21.89 195.67 21.77 194.87 21.6 193.7 21.9 195.87 21.9 195.85 21.84 195.39 21.78 194.93 21.72 194.46 21.5 192.62 21.29 190.77 21.12 188.92 20.81 185.59 20.6 182.25 20.48 178.91 20.25 172.2 20.4 165.48 20.97 158.8 21.11 157.12 21.29 155.44 21.48 153.77 21.62 152.55 21.79 151.49 21.5 153.48 21.63 152.6 21.75 151.71 21.89 150.83 22.4 147.54 23.03 144.26 23.76 141.01 25.19 134.69 27.05 128.46 29.35 122.39 29.7 121.46 31.64 116.86 30.41 119.67 31.07 118.17 31.73 116.68 32.43 115.21 33.83 112.26 35.35 109.37 36.97 106.55 38.55 103.82 40.23 101.14 42.01 98.54 42.87 97.28 43.78 96.05 44.67 94.81 46.26 92.61 44.11 95.45 45.07 94.27 45.62 93.59 46.16 92.9 46.72 92.22 50.89 87.17 55.49 82.47 60.44 78.18 61.73 77.07 63.04 76 64.37 74.93 65.78 73.79 62.69 76.14 64.75 74.64 65.49 74.1 66.23 73.55 66.98 73.01 69.83 70.97 72.77 69.06 75.78 67.27 78.78 65.49 81.85 63.84 84.98 62.31 86.53 61.55 88.1 60.84 89.67 60.13 92.2 58.99 89.23 60.27 90.68 59.69 91.62 59.32 92.55 58.94 93.5 58.57 100.79 55.77 108.3 53.57 115.93 51.91 120.08 51 124.26 50.28 128.46 49.65 130.85 49.29 127.82 49.7 129.66 49.49 130.69 49.37 131.72 49.25 132.75 49.14 135.15 48.88 137.56 48.67 139.97 48.5 149.46 47.83 159 47.8 168.5 48.29 173.38 48.54 178.25 48.92 183.11 49.43 189.09 50.05 191.93 50.44 197.95 51.4 203.38 52.26 208.92 50 210.5 44.28 211.83 39.43 208.85 32.6 203.38 31.73L203.38 31.73Z" class="cls-1 MsftOfcThm_Text1_Fill_v2" stroke="none" stroke-width="1" stroke-linecap="butt" stroke-linejoin="miter" stroke-miterlimit="4" fill="currentColor" fill-opacity="1"></path></g></g></svg>
