<svg viewBox="0 0 213.33 219.86" xmlns="http://www.w3.org/2000/svg" xmlns:xlink="http://www.w3.org/1999/xlink" id="Layer_2" overflow="hidden">
<defs></defs><g id="Layer_1-2"><path d="M0 119.17C0.41 150.67 4.54 182.11 12.25 212.66 14.6 221.97 25.96 221.67 30.89 215.1 72.45 159.75 118.04 107.41 167.04 58.51 181.12 44.45 195.5 30.7 210.13 17.22 219.81 8.31 205.35-6.09 195.71 2.79 143.92 50.49 95.53 101.84 51.07 156.44 38.15 172.3 25.57 188.44 13.28 204.8 19.49 205.61 25.71 206.42 31.92 207.24 24.63 178.37 20.79 148.94 20.4 119.17 20.23 106.06-0.17 106.02 0 119.17L0 119.17Z" class="cls-1 MsftOfcThm_Text1_Fill_v2" stroke="none" stroke-width="1" stroke-linecap="butt" stroke-linejoin="miter" stroke-miterlimit="4" fill="currentColor" fill-opacity="1"></path></g></svg>
