<svg viewBox="0 0 298.41 296.52" xmlns="http://www.w3.org/2000/svg" xmlns:xlink="http://www.w3.org/1999/xlink" id="Layer_2" overflow="hidden">
<defs></defs><g id="Layer_1-2"><g><path d="M142.06 64.95C123.61 55.78 102.83 52.63 82.89 58.81 64.11 64.64 47.9 77.19 35.58 92.3 9.63 124.13-4.74 167.68 1.42 208.68 2.83 218.06 5.6 227.43 9.99 235.86 15.64 246.7 26.67 255.79 36.27 263.04 56.77 278.51 81.94 287.65 107.04 292.29 132.06 296.91 157.79 297.79 183.05 294.75 208.43 291.7 231.3 282.07 251.31 266.15 289.57 235.7 310.87 182.98 290.58 136.28 288.11 130.59 285.11 125.23 281.62 120.11 278.52 115.56 272.65 113.53 267.66 116.45 263.15 119.09 260.88 125.83 264 130.41 270.1 139.37 274.54 148.9 276.81 159.52 278.71 168.39 278.76 179.35 277.14 188.08 273.42 208.16 263.2 226.18 248.94 240.83 234.18 255.98 215.57 267.16 195.05 272.17 174.04 277.3 150.36 277.11 128.6 274.94 106.46 272.73 84 267.11 64.26 256.67 54.46 251.48 45.37 245.2 37.47 237.41 34.02 234.01 30.13 230.31 27.82 226.02 25.81 222.31 25.46 221.13 24.01 216.38 19.27 200.88 19.45 183.29 22.48 167.69 26.07 149.23 32.24 133.57 42.14 117.88 50.93 103.95 62.62 91.33 76.91 83.43 83.32 79.89 89.59 77.5 98.17 76.26 96.25 76.54 99.29 76.17 99.8 76.13 100.77 76.05 101.75 76 102.73 75.96 104.87 75.89 107.02 75.93 109.16 76.07 112.4 76.29 115.56 76.81 120.14 78.1 124.9 79.44 127.8 80.63 131.77 82.6 136.7 85.05 142.81 83.92 145.73 78.94 148.37 74.43 147.02 67.45 142.07 64.98L142.07 64.98Z" class="cls-1 MsftOfcThm_Text1_Fill_v2" stroke="none" stroke-width="1" stroke-linecap="butt" stroke-linejoin="miter" stroke-miterlimit="4" fill="currentColor" fill-opacity="1"></path><path d="M95.93 156.56C104.02 178.73 118.06 197.26 137.08 211.2 141.14 214.18 149.04 212.26 151.04 207.54 174.88 151.3 208.04 99.12 249.28 54.03 261.06 41.15 273.47 28.87 286.42 17.17 296.18 8.35 281.72-6.04 272 2.74 225.64 44.61 186.34 94.45 156.5 149.33 148.03 164.91 140.35 180.91 133.43 197.23 138.08 196.01 142.73 194.79 147.39 193.57 132.97 183.01 121.73 167.89 115.61 151.12 113.72 145.95 108.68 142.45 103.06 144 98.07 145.37 94.04 151.35 95.94 156.55L95.94 156.55Z" class="cls-1 MsftOfcThm_Text1_Fill_v2" stroke="none" stroke-width="1" stroke-linecap="butt" stroke-linejoin="miter" stroke-miterlimit="4" fill="currentColor" fill-opacity="1"></path></g></g></svg>
