<svg viewBox="0 0 221.61 213.59" xmlns="http://www.w3.org/2000/svg" xmlns:xlink="http://www.w3.org/1999/xlink" id="Layer_2" overflow="hidden">
<defs></defs><g id="Layer_1-2"><path d="M1.4 121.01C1.99 122.05 2.53 123.12 3.03 124.2 3.33 124.84 3.61 125.49 3.9 126.13 4.95 128.49 3.07 124.04 4.08 126.58 5.58 130.35 6.99 134.16 8.36 137.98 11.4 146.51 14.29 155.09 17.34 163.61 20.62 172.79 24.06 181.93 28.11 190.8 30.93 196.97 34.18 203.48 39.07 208.32 41.37 210.6 44.29 212.55 47.48 213.31 56.43 215.44 63.29 204.59 68.62 198.85 78.55 188.15 88.21 177.19 97.67 166.08 117.21 143.14 135.93 119.52 154.65 95.91 175.64 69.44 196.64 42.96 218.73 17.38 222.33 13.21 222.83 7.05 218.73 2.95 215.05-0.73 207.92-1.24 204.3 2.95 161.51 52.5 122.88 105.45 80.26 155.13 68.21 169.18 55.82 182.94 42.97 196.26 46.28 195.39 49.59 194.51 52.89 193.64 50.77 193.14 54.37 194.41 53.59 193.99 51.82 193.06 54.77 195.7 53.88 194.27 53.51 193.67 50.93 190.63 52.67 193.11 50.64 190.21 48.92 187.15 47.36 183.98 43.47 176.1 40.71 168.51 37.4 159.29 31.65 143.28 27.4 125.61 19.01 110.71 12.57 99.27-5.06 109.54 1.4 121.01L1.4 121.01Z" class="cls-1 MsftOfcThm_Text1_Fill_v2" stroke="none" stroke-width="1" stroke-linecap="butt" stroke-linejoin="miter" stroke-miterlimit="4" fill="currentColor" fill-opacity="1"></path></g></svg>
