<svg viewBox="0 0 259.1 274.84" xmlns="http://www.w3.org/2000/svg" xmlns:xlink="http://www.w3.org/1999/xlink" id="Layer_2" overflow="hidden">
<defs></defs><g id="Layer_1-2"><g><path d="M120.54 59.78C102.34 62.91 83.81 63.4 65.44 64.94 55.8 65.75 46.16 66.8 36.64 68.48 32.41 69.22 28.2 70.11 24.04 71.18 19.36 72.39 12.5 73.48 8.97 77.01 5.46 80.52 5.32 86.77 4.57 91.43 3.7 96.87 2.96 102.34 2.34 107.81 1.22 117.64 0.57 127.52 0.25 137.41-0.4 157.47 0.33 177.54 1.56 197.56 2.93 219.96 4.93 242.31 6.44 264.7 6.9 271.48 12.57 276.08 19.35 274.54 91.15 258.2 165.38 268.94 238.19 264.75 243.66 264.44 248.44 260.33 248.39 254.55 247.86 197.3 251.27 139.97 258.97 83.23 259.71 77.78 257.66 72.28 251.85 70.68 247.1 69.37 240.05 72.31 239.3 77.8 231.36 136.4 227.45 195.41 228 254.55L238.2 244.35C163.45 248.66 87.7 238.09 13.94 254.87 18.24 258.15 22.55 261.43 26.85 264.71 22.89 205.84 14.6 145.48 26.02 86.94 23.65 89.31 21.27 91.69 18.9 94.06 53.25 82.19 90.54 85.56 125.98 79.45 131.41 78.51 134.46 71.84 133.1 66.9 131.52 61.16 126 58.84 120.55 59.78L120.55 59.78Z" class="MsftOfcThm_Accent4_Fill_v2" stroke="none" stroke-width="1" stroke-linecap="butt" stroke-linejoin="miter" stroke-miterlimit="4" fill="currentColor" fill-opacity="1"></path><path d="M61.15 165.97C71.52 186.14 86.91 203.07 105.6 215.83 109.8 218.7 117.42 216.96 119.56 212.17 144.54 156.21 177.08 103.57 216.48 56.61 227.82 43.1 239.7 30.06 252.07 17.47 261.28 8.1 246.86-6.34 237.65 3.05 193.69 47.79 155.83 98.63 125.78 153.69 117.19 169.43 109.26 185.51 101.95 201.88 106.6 200.66 111.25 199.44 115.91 198.22 100.06 187.39 87.53 172.7 78.78 155.68 72.77 144 55.16 154.31 61.17 165.98L61.17 165.98Z" class="MsftOfcThm_Accent4_Fill_v2" stroke="none" stroke-width="1" stroke-linecap="butt" stroke-linejoin="miter" stroke-miterlimit="4" fill="currentColor" fill-opacity="1"></path></g></g></svg>
