<svg viewBox="0 0 349.35 285.19" xmlns="http://www.w3.org/2000/svg" xmlns:xlink="http://www.w3.org/1999/xlink" id="Layer_2" overflow="hidden">
<defs></defs><g id="Layer_1-2"><g><path d="M102 138.38C112.44 161.44 128.14 182.07 147.56 198.31 151.58 201.67 158.08 202.73 161.98 198.31 206.34 148.12 253.42 100.36 303.05 55.37 317.29 42.46 331.75 29.78 346.39 17.32 350.59 13.75 350.06 6.57 346.39 2.89 342.23-1.27 336.17-0.69 331.96 2.89 280.95 46.3 232.31 92.48 186.4 141.26 173.22 155.26 160.28 169.47 147.55 183.88L161.97 183.88C143.69 168.59 129.43 149.79 119.6 128.08 117.33 123.06 110.05 121.85 105.64 124.42 100.48 127.44 99.7 133.34 101.98 138.38L101.98 138.38Z" class="MsftOfcThm_Text1_Fill_v2" stroke="none" stroke-width="1" stroke-linecap="butt" stroke-linejoin="miter" stroke-miterlimit="4" fill="currentColor" fill-opacity="1"></path><path d="M247.51 40.72C197.97 4.65 132.08 2.2 78.62 31.2 30.21 57.47-5.86 109.92 0.79 166.56 4.34 196.81 18.74 227.79 40.9 248.95 58.65 265.89 81.53 276.83 105.48 281.68 155.04 291.71 209.82 279.83 251.67 251.7 271.69 238.24 289.57 220.64 300.71 199.03 312.29 176.56 315.77 151.49 311.21 126.66 310.06 120.41 308.36 114.3 306.26 108.31 304.44 103.11 299.28 99.65 293.71 101.19 288.67 102.58 284.76 108.51 286.59 113.74 288.69 119.73 290.4 125.85 291.54 132.09 291.78 133.41 292 134.74 292.2 136.07 291.93 134.24 292.38 137.66 292.44 138.28 292.72 141.18 292.89 144.08 292.92 146.99 292.95 149.67 292.88 152.36 292.69 155.03 292.59 156.43 292.45 157.82 292.31 159.21 292.27 159.6 292.05 161.22 292.32 159.26 292.19 160.17 292.05 161.08 291.89 161.99 291.02 167.09 289.74 172.11 288.08 177.01 287.69 178.15 287.28 179.29 286.85 180.42 286.58 181.13 286.3 181.83 286.02 182.53 285.43 184.01 286.63 181.14 285.99 182.6 284.9 185.09 283.72 187.54 282.44 189.94 279.94 194.64 277.1 199.16 273.97 203.47 272.22 205.88 272.49 205.54 270.16 208.31 268.36 210.45 266.49 212.53 264.56 214.56 260.74 218.56 256.69 222.32 252.44 225.85 251.46 226.67 250.46 227.47 249.46 228.27 247.05 230.19 250.33 227.63 248.86 228.74 248.35 229.13 247.83 229.51 247.31 229.9 244.96 231.63 242.57 233.3 240.14 234.9 235.35 238.06 230.4 240.98 225.32 243.66 214.58 249.33 206.42 252.69 194.45 256.38 188.82 258.12 183.12 259.61 177.36 260.84 174.56 261.44 171.76 261.98 168.94 262.46 167.62 262.68 166.29 262.89 164.96 263.09 164.3 263.19 163.63 263.29 162.97 263.37 164.98 263.1 161.78 263.5 161.69 263.51 150.17 264.85 138.52 265.15 126.96 264.24 120.4 263.72 118.44 263.48 111.83 262.18 106.34 261.11 100.92 259.73 95.6 258.01 93.04 257.19 90.51 256.28 88.01 255.3 87.42 255.07 86.84 254.83 86.26 254.6 84.75 253.98 87.58 255.18 86.09 254.53 84.65 253.9 83.23 253.25 81.81 252.57 76.88 250.19 72.11 247.47 67.57 244.42 66.53 243.72 65.5 243.01 64.49 242.27 63.98 241.9 63.48 241.53 62.98 241.16 60.57 239.36 63.85 241.87 62.44 240.74 60.23 238.96 58.08 237.12 56.01 235.18 51.53 230.98 47.61 226.46 44.06 221.45 35.6 209.52 28.96 196.95 24.88 183.31 21.08 170.59 19.76 159.95 20.58 146.47 20.98 139.92 21.5 136.56 23.13 129.8 24.56 123.84 26.45 117.97 28.83 112.32 28.3 113.57 29.67 110.48 29.92 109.94 30.51 108.67 31.13 107.4 31.76 106.15 33.19 103.32 34.74 100.55 36.37 97.84 39.69 92.35 43.12 87.53 46.5 83.46 50.4 78.77 54.6 74.33 59.06 70.16 63.98 65.57 68.2 62.12 73.03 58.7 115.78 28.43 172.08 21.85 218.74 46.71 225.17 50.14 231.31 54.06 237.2 58.35 241.66 61.59 248.57 59.11 251.16 54.69 254.18 49.53 251.97 43.99 247.5 40.73L247.5 40.73Z" class="MsftOfcThm_Text1_Fill_v2" stroke="none" stroke-width="1" stroke-linecap="butt" stroke-linejoin="miter" stroke-miterlimit="4" fill="currentColor" fill-opacity="1"></path></g></g></svg>
