<svg viewBox="0 0 218.38 254.43" xmlns="http://www.w3.org/2000/svg" xmlns:xlink="http://www.w3.org/1999/xlink" id="Layer_2" overflow="hidden">
<defs></defs><g id="Layer_1-2"><path d="M1.39 145.49C20.87 180.17 40.35 214.86 59.83 249.54 64.04 257.04 76.44 255.66 78.47 247.1 94.79 178.52 127.32 113.93 173.08 60.26 186.12 44.97 200.18 30.58 215.13 17.15 224.91 8.35 210.45-6.04 200.71 2.72 146.01 51.9 103.68 114.06 77.14 182.61 69.69 201.86 63.58 221.6 58.8 241.67 65.01 240.86 71.23 240.05 77.44 239.23 57.96 204.55 38.48 169.86 19 135.18 12.57 123.73-5.06 134 1.39 145.48L1.39 145.48Z" class="MsftOfcThm_Text1_Fill_v2" stroke="none" stroke-width="1" stroke-linecap="butt" stroke-linejoin="miter" stroke-miterlimit="4" fill="currentColor" fill-opacity="1"></path></g></svg>
