<svg viewBox="0 0 328.09 280.75" xmlns="http://www.w3.org/2000/svg" xmlns:xlink="http://www.w3.org/1999/xlink" id="Layer_2" overflow="hidden">
<defs></defs><g id="Layer_1-2"><g><path d="M163.99 36.66C112.73 39.64 61.47 42.62 10.21 45.59 4.74 45.92-0.06 50.01 0 55.8 0.71 126.4 1.41 196.99 2.12 267.59 2.18 273.15 6.75 277.72 12.32 277.79 96.08 278.78 179.84 279.77 263.6 280.76 267.67 280.81 272.73 277.59 273.44 273.27 282.42 218.13 285.92 162.26 283.49 106.44 282.92 93.36 262.52 93.29 263.09 106.44 265.44 160.39 262.45 214.54 253.77 267.85 257.05 265.35 260.33 262.86 263.61 260.36 179.85 259.37 96.09 258.38 12.33 257.39L22.53 267.59C21.82 196.99 21.12 126.4 20.41 55.8L10.21 66C61.47 63.02 112.73 60.04 163.99 57.07 177.04 56.31 177.13 35.91 163.99 36.67L163.99 36.67Z" class="MsftOfcThm_Accent1_Fill_v2" stroke="none" stroke-width="1" stroke-linecap="butt" stroke-linejoin="miter" stroke-miterlimit="4" fill="currentColor" fill-opacity="1"></path><path d="M64.46 146.43C90.71 169.2 116.95 191.96 143.2 214.73 147.68 218.62 156.29 219.06 159.22 212.67 187.1 151.76 227.76 97.32 278.29 53.34 292.5 40.98 307.45 29.57 323.08 19.06 327.65 15.99 329.64 10.07 326.74 5.1 324.09 0.57 317.38-1.65 312.78 1.44 254.87 40.38 205.58 91.57 168.99 151.01 158.81 167.55 149.69 184.71 141.61 202.37 146.95 201.68 152.29 200.99 157.63 200.31 131.38 177.54 105.14 154.78 78.89 132.01 74.73 128.4 68.55 127.92 64.47 132.01 60.78 135.7 60.29 142.81 64.47 146.43L64.47 146.43Z" class="MsftOfcThm_Accent1_Fill_v2" stroke="none" stroke-width="1" stroke-linecap="butt" stroke-linejoin="miter" stroke-miterlimit="4" fill="currentColor" fill-opacity="1"></path></g></g></svg>
