<svg viewBox="0 0 310.59 311.94" xmlns="http://www.w3.org/2000/svg" xmlns:xlink="http://www.w3.org/1999/xlink" id="Layer_2" overflow="hidden">
<defs></defs><g id="Layer_1-2"><g><path d="M168.68 104.32C117.59 108.79 66.5 113.25 15.42 117.72 11.22 118.09 6.46 120.6 5.58 125.21-5.78 185.22 0.18 247.99 23.73 304.43 25.38 308.4 28.75 312.25 33.57 311.92 95.13 307.64 156.69 303.36 218.25 299.08 223.79 298.69 228.4 294.72 228.45 288.88 228.86 241.87 229.27 194.85 229.68 147.84 229.79 134.71 209.39 134.7 209.28 147.84L208.05 288.88 218.25 278.68C156.69 282.96 95.13 287.24 33.57 291.52 36.85 294.02 40.13 296.51 43.41 299.01 21.3 246 14.56 187.14 25.26 130.63 21.98 133.13 18.7 135.62 15.42 138.12 66.51 133.65 117.6 129.19 168.68 124.72 174.17 124.24 178.88 120.38 178.88 114.52 178.88 109.37 174.2 103.84 168.68 104.32L168.68 104.32Z" class="MsftOfcThm_Text1_Fill_v2" stroke="none" stroke-width="1" stroke-linecap="butt" stroke-linejoin="miter" stroke-miterlimit="4" fill="currentColor" fill-opacity="1"></path><path d="M68.55 203.29C77.69 219.14 86.83 235 95.98 250.85 99.97 257.77 109.46 257.12 113.59 250.85 157.16 184.75 206.34 122.49 260.59 64.84 275.84 48.63 291.49 32.81 307.5 17.34 316.96 8.2 302.52-6.21 293.08 2.92 235.34 58.71 182.49 119.44 135.08 184.24 121.58 202.69 108.56 221.47 95.98 240.56L113.59 240.56C104.45 224.71 95.31 208.85 86.16 193 79.6 181.63 61.97 191.89 68.55 203.3L68.55 203.3Z" class="MsftOfcThm_Text1_Fill_v2" stroke="none" stroke-width="1" stroke-linecap="butt" stroke-linejoin="miter" stroke-miterlimit="4" fill="currentColor" fill-opacity="1"></path></g></g></svg>
