<svg viewBox="0 0 324.35 324.39" xmlns="http://www.w3.org/2000/svg" xmlns:xlink="http://www.w3.org/1999/xlink" id="Layer_2" overflow="hidden">
<defs></defs><g id="Layer_1-2"><g><path d="M174.57 74.46C149.74 59.41 120.35 53.56 91.98 60.86 66.18 67.5 43.86 84.03 27.75 104.95 11.13 126.54 1.12 153.1 0.08 180.39-1.01 209.17 9.24 235.49 25.63 258.73 52.36 296.63 94.43 319.83 140.47 323.81 180.09 327.24 223.49 315.45 251.59 286.2 283.37 253.11 285.73 205.75 269.96 164.44 267.28 157.43 264.23 150.55 260.87 143.84 258.41 138.91 251.45 137.53 246.91 140.18 241.89 143.11 240.78 149.19 243.25 154.14 253.33 174.29 259.98 195.85 259.46 217.46 259.41 219.73 259.28 222 259.07 224.27 258.96 225.45 258.84 226.63 258.68 227.81 258.98 225.5 258.42 229.27 258.31 229.86 257.53 234.18 256.45 238.45 255.05 242.62 254.7 243.67 254.33 244.72 253.94 245.75 253.77 246.2 252.45 249.39 253.42 247.14 252.55 249.14 251.62 251.11 250.61 253.04 248.61 256.86 246.31 260.5 243.81 264.01 243.5 264.45 243.17 264.87 242.86 265.3 243.07 265.02 244.16 263.68 242.98 265.14 242.39 265.87 241.8 266.6 241.2 267.31 239.73 269.05 238.2 270.74 236.61 272.36 233.69 275.35 230.56 278.11 227.31 280.73 226.15 281.66 228.64 279.73 227.45 280.63 227.02 280.96 226.58 281.28 226.14 281.6 225.37 282.16 224.6 282.72 223.81 283.26 221.9 284.58 219.94 285.84 217.95 287.05 214.15 289.34 210.22 291.4 206.19 293.25 205.3 293.66 204.4 294.05 203.5 294.44 205.58 293.55 202.63 294.78 202.03 295.01 199.92 295.83 197.78 296.6 195.63 297.31 191.27 298.75 186.83 299.96 182.35 300.95 180.08 301.45 177.8 301.9 175.51 302.29 174.5 302.46 173.49 302.61 172.48 302.77 172.16 302.82 170.31 303.07 171.66 302.89 173.09 302.7 170.38 303.03 170.39 303.03 165.68 303.54 160.95 303.88 156.21 303.96 151.56 304.04 146.91 303.91 142.27 303.56 140.01 303.39 137.75 303.16 135.5 302.9 133.49 302.67 135.1 302.86 135.5 302.91 134.9 302.83 134.3 302.74 133.69 302.65 132.33 302.44 130.98 302.22 129.63 301.98 120.08 300.28 110.69 297.65 101.64 294.13 98.83 293.03 99.62 293.39 96.31 291.87 94.02 290.82 91.77 289.72 89.54 288.55 85.04 286.2 80.66 283.6 76.44 280.78 74.43 279.44 72.48 278.04 70.53 276.61 68.79 275.33 70.43 276.61 68.75 275.24 67.61 274.31 66.48 273.39 65.36 272.44 61.46 269.11 57.75 265.57 54.24 261.83 46.37 253.45 41.3 245.98 34.96 235.71 28.26 224.86 24 213.71 21.71 201.03 17.73 178.93 22.47 154.24 33.12 134.08 44.04 113.41 60.1 96.71 81.16 86.39 89.88 82.12 102.19 78.75 111.71 78.14 124.25 77.35 134.65 78.98 146.6 83.31 152.64 85.5 158.57 88.6 164.25 92.04 175.51 98.86 185.77 81.23 174.55 74.43L174.55 74.43Z" class="MsftOfcThm_Text1_Fill_v2" stroke="none" stroke-width="1" stroke-linecap="butt" stroke-linejoin="miter" stroke-miterlimit="4" fill="currentColor" fill-opacity="1"></path><path d="M98.76 166.55C107.24 189.96 122.14 209.59 142.29 224.18 146.7 227.37 153.76 224.97 156.25 220.52 189.51 160.94 230.63 106.01 278.59 57.46 292.34 43.54 306.63 30.18 321.39 17.34 325.55 13.72 325.09 6.62 321.39 2.92 317.26-1.21 311.14-0.7 306.97 2.92 254.2 48.78 207.76 101.84 169.14 160.12 158.33 176.43 148.18 193.15 138.64 210.23 143.29 209.01 147.94 207.79 152.6 206.57 137.06 195.32 124.98 179.16 118.44 161.14 116.56 155.96 111.5 152.47 105.89 154.02 100.89 155.39 96.88 161.36 98.77 166.57L98.77 166.57Z" class="MsftOfcThm_Text1_Fill_v2" stroke="none" stroke-width="1" stroke-linecap="butt" stroke-linejoin="miter" stroke-miterlimit="4" fill="currentColor" fill-opacity="1"></path></g></g></svg>
