<?xml version="1.0"?>
<svg id="Layer_1" data-name="Layer 1" xmlns="http://www.w3.org/2000/svg" viewBox="0 0 99.72 99.72">
  <defs></defs>

  <rect fill="#D2EB00" y="0" width="99.72" height="99.72"></rect>
  <path fill="#182D43" d="M81.95,0c2.3,1.27,4.39,4.57,4.89,10.9l.07.86c3.03,38.12,3.71,63.54,12.74,83.26C99.81,95.38,99.65,0,99.65,0h-17.7Z"></path>
  <path fill="#182D43" d="M0,88.96c1.29-2.16,2.88-3.89,4.82-4.52,1.51-.49,3.88-.54,6.52,2.01,1.96,1.89,3.65,2.78,4.76,2.52.69-.16,1.27-.91,2.71-3.72l.16-.46c4.24-11.98,7.32-18.49,11.43-18.49h.04c3.27.04,4.52,4.13,5.04,5.43,1.45,3.67,2.36,5.45,3.13,6.17.85.82,1.58.06,2.17-1.71.45-1.36.98-3.85,1.6-6.74,2.5-11.76,4.63-20.15,9.26-20.93,3.28-.56,5.05,2.13,5.63,3.35.65,1.37,2.47,5.88,3.73,6.17,1.45.12,1.66-3.29,2.51-8.23.53-3.11,1.17-6.3,2.17-11.17,1.71-8.29,3.94-18.21,6.27-27.82,1.5-6.19,3.31-9.54,5.41-10.83H0v88.96Z"></path>
  <path fill="#182D43" d="M97.55,99.72c-.54-.72-.98-1.39-1.15-1.75-9.85-20.57-10.53-46.52-13.65-85.81l-.07-.86c-.74-4.91-1.28-7.05-2.85-7.16-1.66-.12-2.66,2.79-3.75,7.23-2.47,10.05-4.6,19.82-6.33,28.19-.99,4.82-1.85,8.97-2.31,11.99-1.15,7.48-2.62,10.59-5.22,11.1-3.04.6-4.2-.74-6.43-4.42-.94-1.55-1.92-3.79-2.11-4.2-.67-1.47-1.96-1.79-2.66.07-1.08,2.88-.83,1.95-1.63,4.37-1.19,3.61-2.1,8.03-2.93,11.93-.64,3.01-1.19,5.6-1.72,7.19-1.19,3.57-2.93,5.38-5.18,5.38h0c-1.12,0-5.02-.72-8.02-9.86-.54-1.63-1-2.17-1.9-1.91-.97.43-3.35,5.49-6.73,15.05l-.16.46c-1.29,3.65-3.2,5.79-5.68,6.38-2.6.62-5.5-.59-8.61-3.58-1.41-1.35-2.12-1.12-2.36-1.05-2.26.73-4.84,6.35-6.09,11.24h97.55Z"></path>
</svg>