<?xml version="1.0"?>
<svg id="Layer_1" xmlns="http://www.w3.org/2000/svg" version="1.1" viewBox="0 0 1920 1080">

  <defs>

  </defs>
  <path fill="#D2EB00" d="M742.5,1080h-31.4l130.9-136.4s42.8-37.3,78.5-33.2c42.6,4.9,84.3,96.4,117.7,28.2,24.1-49.1,62.6-207.8,121.8-219.7,64.6-12.9,65.6,103.8,106.1,132.2,19.2-1.6,38.4-130.1,43.4-150.8,10.4-43.3,34.3-139.3,70.2-165.9,68.4-50.7,90,67.1,115.7,93,16,16.2,23.8-36.9,26.1-48.2,33-155.7,54.9-314.4,97.7-468.2,11.2-40.2,21.7-87.4,59.2-110.8h48.2L1726.8,0c31.6,20.3,44.7,48.4,51,84.7,18.5,107.5,16.4,239.9,26.1,351.1,3,34.7,7.5,69.3,11,104,17,164.9,36.3,335.1,105.5,487.2,0,17,1.4,35.9,0,53h-13.5c-5.5,0-10-.1-12.1,0-86.9-165-108.1-356.8-126.7-540.2-4.5-45.1-9.9-90.4-13.8-135.6-8.3-98.8-6.2-215.7-22-311.3-2.9-17.8-18-71.8-42.7-42.7-11.9,14-28.9,84.7-34.5,106.1-32.6,126.6-54.9,255.4-79.9,383.5-7.1,36.3-15.9,122.1-55.7,136.3-63.8,22.6-77.9-74.8-110.2-106.1-16.6,12.7-22.5,33.8-29.6,52.4-25.8,67.1-29.1,132.8-48.2,198.9-22,75.7-75.9,112.1-124,28.9-9.3-16-29.2-75.2-35.9-82.6-5.8-6.5-17.2,12.6-20.6,17.9-45.8,70.1-68.1,282.6-187.9,208.7-17.1-10.5-40.8-44.5-60.6-37.2-28.4,5.3-134.4,119.5-137.1,122.9"></path>
</svg>